G04 #@! TF.GenerationSoftware,KiCad,Pcbnew,(5.1.5-0-10_14)*
G04 #@! TF.CreationDate,2020-07-12T14:24:48+02:00*
G04 #@! TF.ProjectId,OpenC16Cart,4f70656e-4331-4364-9361-72742e6b6963,3*
G04 #@! TF.SameCoordinates,Original*
G04 #@! TF.FileFunction,Soldermask,Top*
G04 #@! TF.FilePolarity,Negative*
%FSLAX46Y46*%
G04 Gerber Fmt 4.6, Leading zero omitted, Abs format (unit mm)*
G04 Created by KiCad (PCBNEW (5.1.5-0-10_14)) date 2020-07-12 14:24:48*
%MOMM*%
%LPD*%
G04 APERTURE LIST*
%ADD10R,52.000000X8.000000*%
%ADD11O,1.600000X1.600000*%
%ADD12R,1.600000X1.600000*%
%ADD13C,0.100000*%
%ADD14R,1.250000X1.500000*%
%ADD15O,2.199640X1.501140*%
G04 APERTURE END LIST*
D10*
X147447000Y-124460000D03*
D11*
X152400000Y-72771000D03*
X144780000Y-65151000D03*
X149860000Y-72771000D03*
X147320000Y-65151000D03*
X147320000Y-72771000D03*
X149860000Y-65151000D03*
X144780000Y-72771000D03*
D12*
X152400000Y-65151000D03*
D13*
G36*
X130317000Y-66433602D02*
G01*
X130341534Y-66433602D01*
X130390365Y-66438412D01*
X130438490Y-66447984D01*
X130485445Y-66462228D01*
X130530778Y-66481005D01*
X130574051Y-66504136D01*
X130614850Y-66531396D01*
X130652779Y-66562524D01*
X130687476Y-66597221D01*
X130718604Y-66635150D01*
X130745864Y-66675949D01*
X130768995Y-66719222D01*
X130787772Y-66764555D01*
X130802016Y-66811510D01*
X130811588Y-66859635D01*
X130816398Y-66908466D01*
X130816398Y-66933000D01*
X130817000Y-66933000D01*
X130817000Y-67433000D01*
X130816398Y-67433000D01*
X130816398Y-67457534D01*
X130811588Y-67506365D01*
X130802016Y-67554490D01*
X130787772Y-67601445D01*
X130768995Y-67646778D01*
X130745864Y-67690051D01*
X130718604Y-67730850D01*
X130687476Y-67768779D01*
X130652779Y-67803476D01*
X130614850Y-67834604D01*
X130574051Y-67861864D01*
X130530778Y-67884995D01*
X130485445Y-67903772D01*
X130438490Y-67918016D01*
X130390365Y-67927588D01*
X130341534Y-67932398D01*
X130317000Y-67932398D01*
X130317000Y-67933000D01*
X129817000Y-67933000D01*
X129817000Y-66433000D01*
X130317000Y-66433000D01*
X130317000Y-66433602D01*
G37*
G36*
X129517000Y-67933000D02*
G01*
X129017000Y-67933000D01*
X129017000Y-67932398D01*
X128992466Y-67932398D01*
X128943635Y-67927588D01*
X128895510Y-67918016D01*
X128848555Y-67903772D01*
X128803222Y-67884995D01*
X128759949Y-67861864D01*
X128719150Y-67834604D01*
X128681221Y-67803476D01*
X128646524Y-67768779D01*
X128615396Y-67730850D01*
X128588136Y-67690051D01*
X128565005Y-67646778D01*
X128546228Y-67601445D01*
X128531984Y-67554490D01*
X128522412Y-67506365D01*
X128517602Y-67457534D01*
X128517602Y-67433000D01*
X128517000Y-67433000D01*
X128517000Y-66933000D01*
X128517602Y-66933000D01*
X128517602Y-66908466D01*
X128522412Y-66859635D01*
X128531984Y-66811510D01*
X128546228Y-66764555D01*
X128565005Y-66719222D01*
X128588136Y-66675949D01*
X128615396Y-66635150D01*
X128646524Y-66597221D01*
X128681221Y-66562524D01*
X128719150Y-66531396D01*
X128759949Y-66504136D01*
X128803222Y-66481005D01*
X128848555Y-66462228D01*
X128895510Y-66447984D01*
X128943635Y-66438412D01*
X128992466Y-66433602D01*
X129017000Y-66433602D01*
X129017000Y-66433000D01*
X129517000Y-66433000D01*
X129517000Y-67933000D01*
G37*
G36*
X130317000Y-70370602D02*
G01*
X130341534Y-70370602D01*
X130390365Y-70375412D01*
X130438490Y-70384984D01*
X130485445Y-70399228D01*
X130530778Y-70418005D01*
X130574051Y-70441136D01*
X130614850Y-70468396D01*
X130652779Y-70499524D01*
X130687476Y-70534221D01*
X130718604Y-70572150D01*
X130745864Y-70612949D01*
X130768995Y-70656222D01*
X130787772Y-70701555D01*
X130802016Y-70748510D01*
X130811588Y-70796635D01*
X130816398Y-70845466D01*
X130816398Y-70870000D01*
X130817000Y-70870000D01*
X130817000Y-71370000D01*
X130816398Y-71370000D01*
X130816398Y-71394534D01*
X130811588Y-71443365D01*
X130802016Y-71491490D01*
X130787772Y-71538445D01*
X130768995Y-71583778D01*
X130745864Y-71627051D01*
X130718604Y-71667850D01*
X130687476Y-71705779D01*
X130652779Y-71740476D01*
X130614850Y-71771604D01*
X130574051Y-71798864D01*
X130530778Y-71821995D01*
X130485445Y-71840772D01*
X130438490Y-71855016D01*
X130390365Y-71864588D01*
X130341534Y-71869398D01*
X130317000Y-71869398D01*
X130317000Y-71870000D01*
X129817000Y-71870000D01*
X129817000Y-70370000D01*
X130317000Y-70370000D01*
X130317000Y-70370602D01*
G37*
G36*
X129517000Y-71870000D02*
G01*
X129017000Y-71870000D01*
X129017000Y-71869398D01*
X128992466Y-71869398D01*
X128943635Y-71864588D01*
X128895510Y-71855016D01*
X128848555Y-71840772D01*
X128803222Y-71821995D01*
X128759949Y-71798864D01*
X128719150Y-71771604D01*
X128681221Y-71740476D01*
X128646524Y-71705779D01*
X128615396Y-71667850D01*
X128588136Y-71627051D01*
X128565005Y-71583778D01*
X128546228Y-71538445D01*
X128531984Y-71491490D01*
X128522412Y-71443365D01*
X128517602Y-71394534D01*
X128517602Y-71370000D01*
X128517000Y-71370000D01*
X128517000Y-70870000D01*
X128517602Y-70870000D01*
X128517602Y-70845466D01*
X128522412Y-70796635D01*
X128531984Y-70748510D01*
X128546228Y-70701555D01*
X128565005Y-70656222D01*
X128588136Y-70612949D01*
X128615396Y-70572150D01*
X128646524Y-70534221D01*
X128681221Y-70499524D01*
X128719150Y-70468396D01*
X128759949Y-70441136D01*
X128803222Y-70418005D01*
X128848555Y-70399228D01*
X128895510Y-70384984D01*
X128943635Y-70375412D01*
X128992466Y-70370602D01*
X129017000Y-70370602D01*
X129017000Y-70370000D01*
X129517000Y-70370000D01*
X129517000Y-71870000D01*
G37*
G36*
X161544000Y-66433602D02*
G01*
X161568534Y-66433602D01*
X161617365Y-66438412D01*
X161665490Y-66447984D01*
X161712445Y-66462228D01*
X161757778Y-66481005D01*
X161801051Y-66504136D01*
X161841850Y-66531396D01*
X161879779Y-66562524D01*
X161914476Y-66597221D01*
X161945604Y-66635150D01*
X161972864Y-66675949D01*
X161995995Y-66719222D01*
X162014772Y-66764555D01*
X162029016Y-66811510D01*
X162038588Y-66859635D01*
X162043398Y-66908466D01*
X162043398Y-66933000D01*
X162044000Y-66933000D01*
X162044000Y-67433000D01*
X162043398Y-67433000D01*
X162043398Y-67457534D01*
X162038588Y-67506365D01*
X162029016Y-67554490D01*
X162014772Y-67601445D01*
X161995995Y-67646778D01*
X161972864Y-67690051D01*
X161945604Y-67730850D01*
X161914476Y-67768779D01*
X161879779Y-67803476D01*
X161841850Y-67834604D01*
X161801051Y-67861864D01*
X161757778Y-67884995D01*
X161712445Y-67903772D01*
X161665490Y-67918016D01*
X161617365Y-67927588D01*
X161568534Y-67932398D01*
X161544000Y-67932398D01*
X161544000Y-67933000D01*
X161044000Y-67933000D01*
X161044000Y-66433000D01*
X161544000Y-66433000D01*
X161544000Y-66433602D01*
G37*
G36*
X160744000Y-67933000D02*
G01*
X160244000Y-67933000D01*
X160244000Y-67932398D01*
X160219466Y-67932398D01*
X160170635Y-67927588D01*
X160122510Y-67918016D01*
X160075555Y-67903772D01*
X160030222Y-67884995D01*
X159986949Y-67861864D01*
X159946150Y-67834604D01*
X159908221Y-67803476D01*
X159873524Y-67768779D01*
X159842396Y-67730850D01*
X159815136Y-67690051D01*
X159792005Y-67646778D01*
X159773228Y-67601445D01*
X159758984Y-67554490D01*
X159749412Y-67506365D01*
X159744602Y-67457534D01*
X159744602Y-67433000D01*
X159744000Y-67433000D01*
X159744000Y-66933000D01*
X159744602Y-66933000D01*
X159744602Y-66908466D01*
X159749412Y-66859635D01*
X159758984Y-66811510D01*
X159773228Y-66764555D01*
X159792005Y-66719222D01*
X159815136Y-66675949D01*
X159842396Y-66635150D01*
X159873524Y-66597221D01*
X159908221Y-66562524D01*
X159946150Y-66531396D01*
X159986949Y-66504136D01*
X160030222Y-66481005D01*
X160075555Y-66462228D01*
X160122510Y-66447984D01*
X160170635Y-66438412D01*
X160219466Y-66433602D01*
X160244000Y-66433602D01*
X160244000Y-66433000D01*
X160744000Y-66433000D01*
X160744000Y-67933000D01*
G37*
G36*
X161559000Y-70370602D02*
G01*
X161583534Y-70370602D01*
X161632365Y-70375412D01*
X161680490Y-70384984D01*
X161727445Y-70399228D01*
X161772778Y-70418005D01*
X161816051Y-70441136D01*
X161856850Y-70468396D01*
X161894779Y-70499524D01*
X161929476Y-70534221D01*
X161960604Y-70572150D01*
X161987864Y-70612949D01*
X162010995Y-70656222D01*
X162029772Y-70701555D01*
X162044016Y-70748510D01*
X162053588Y-70796635D01*
X162058398Y-70845466D01*
X162058398Y-70870000D01*
X162059000Y-70870000D01*
X162059000Y-71370000D01*
X162058398Y-71370000D01*
X162058398Y-71394534D01*
X162053588Y-71443365D01*
X162044016Y-71491490D01*
X162029772Y-71538445D01*
X162010995Y-71583778D01*
X161987864Y-71627051D01*
X161960604Y-71667850D01*
X161929476Y-71705779D01*
X161894779Y-71740476D01*
X161856850Y-71771604D01*
X161816051Y-71798864D01*
X161772778Y-71821995D01*
X161727445Y-71840772D01*
X161680490Y-71855016D01*
X161632365Y-71864588D01*
X161583534Y-71869398D01*
X161559000Y-71869398D01*
X161559000Y-71870000D01*
X161059000Y-71870000D01*
X161059000Y-70370000D01*
X161559000Y-70370000D01*
X161559000Y-70370602D01*
G37*
G36*
X160759000Y-71870000D02*
G01*
X160259000Y-71870000D01*
X160259000Y-71869398D01*
X160234466Y-71869398D01*
X160185635Y-71864588D01*
X160137510Y-71855016D01*
X160090555Y-71840772D01*
X160045222Y-71821995D01*
X160001949Y-71798864D01*
X159961150Y-71771604D01*
X159923221Y-71740476D01*
X159888524Y-71705779D01*
X159857396Y-71667850D01*
X159830136Y-71627051D01*
X159807005Y-71583778D01*
X159788228Y-71538445D01*
X159773984Y-71491490D01*
X159764412Y-71443365D01*
X159759602Y-71394534D01*
X159759602Y-71370000D01*
X159759000Y-71370000D01*
X159759000Y-70870000D01*
X159759602Y-70870000D01*
X159759602Y-70845466D01*
X159764412Y-70796635D01*
X159773984Y-70748510D01*
X159788228Y-70701555D01*
X159807005Y-70656222D01*
X159830136Y-70612949D01*
X159857396Y-70572150D01*
X159888524Y-70534221D01*
X159923221Y-70499524D01*
X159961150Y-70468396D01*
X160001949Y-70441136D01*
X160045222Y-70418005D01*
X160090555Y-70399228D01*
X160137510Y-70384984D01*
X160185635Y-70375412D01*
X160234466Y-70370602D01*
X160259000Y-70370602D01*
X160259000Y-70370000D01*
X160759000Y-70370000D01*
X160759000Y-71870000D01*
G37*
G36*
X137264505Y-66611204D02*
G01*
X137288773Y-66614804D01*
X137312572Y-66620765D01*
X137335671Y-66629030D01*
X137357850Y-66639520D01*
X137378893Y-66652132D01*
X137398599Y-66666747D01*
X137416777Y-66683223D01*
X137433253Y-66701401D01*
X137447868Y-66721107D01*
X137460480Y-66742150D01*
X137470970Y-66764329D01*
X137479235Y-66787428D01*
X137485196Y-66811227D01*
X137488796Y-66835495D01*
X137490000Y-66859999D01*
X137490000Y-67760001D01*
X137488796Y-67784505D01*
X137485196Y-67808773D01*
X137479235Y-67832572D01*
X137470970Y-67855671D01*
X137460480Y-67877850D01*
X137447868Y-67898893D01*
X137433253Y-67918599D01*
X137416777Y-67936777D01*
X137398599Y-67953253D01*
X137378893Y-67967868D01*
X137357850Y-67980480D01*
X137335671Y-67990970D01*
X137312572Y-67999235D01*
X137288773Y-68005196D01*
X137264505Y-68008796D01*
X137240001Y-68010000D01*
X136589999Y-68010000D01*
X136565495Y-68008796D01*
X136541227Y-68005196D01*
X136517428Y-67999235D01*
X136494329Y-67990970D01*
X136472150Y-67980480D01*
X136451107Y-67967868D01*
X136431401Y-67953253D01*
X136413223Y-67936777D01*
X136396747Y-67918599D01*
X136382132Y-67898893D01*
X136369520Y-67877850D01*
X136359030Y-67855671D01*
X136350765Y-67832572D01*
X136344804Y-67808773D01*
X136341204Y-67784505D01*
X136340000Y-67760001D01*
X136340000Y-66859999D01*
X136341204Y-66835495D01*
X136344804Y-66811227D01*
X136350765Y-66787428D01*
X136359030Y-66764329D01*
X136369520Y-66742150D01*
X136382132Y-66721107D01*
X136396747Y-66701401D01*
X136413223Y-66683223D01*
X136431401Y-66666747D01*
X136451107Y-66652132D01*
X136472150Y-66639520D01*
X136494329Y-66629030D01*
X136517428Y-66620765D01*
X136541227Y-66614804D01*
X136565495Y-66611204D01*
X136589999Y-66610000D01*
X137240001Y-66610000D01*
X137264505Y-66611204D01*
G37*
G36*
X135214505Y-66611204D02*
G01*
X135238773Y-66614804D01*
X135262572Y-66620765D01*
X135285671Y-66629030D01*
X135307850Y-66639520D01*
X135328893Y-66652132D01*
X135348599Y-66666747D01*
X135366777Y-66683223D01*
X135383253Y-66701401D01*
X135397868Y-66721107D01*
X135410480Y-66742150D01*
X135420970Y-66764329D01*
X135429235Y-66787428D01*
X135435196Y-66811227D01*
X135438796Y-66835495D01*
X135440000Y-66859999D01*
X135440000Y-67760001D01*
X135438796Y-67784505D01*
X135435196Y-67808773D01*
X135429235Y-67832572D01*
X135420970Y-67855671D01*
X135410480Y-67877850D01*
X135397868Y-67898893D01*
X135383253Y-67918599D01*
X135366777Y-67936777D01*
X135348599Y-67953253D01*
X135328893Y-67967868D01*
X135307850Y-67980480D01*
X135285671Y-67990970D01*
X135262572Y-67999235D01*
X135238773Y-68005196D01*
X135214505Y-68008796D01*
X135190001Y-68010000D01*
X134539999Y-68010000D01*
X134515495Y-68008796D01*
X134491227Y-68005196D01*
X134467428Y-67999235D01*
X134444329Y-67990970D01*
X134422150Y-67980480D01*
X134401107Y-67967868D01*
X134381401Y-67953253D01*
X134363223Y-67936777D01*
X134346747Y-67918599D01*
X134332132Y-67898893D01*
X134319520Y-67877850D01*
X134309030Y-67855671D01*
X134300765Y-67832572D01*
X134294804Y-67808773D01*
X134291204Y-67784505D01*
X134290000Y-67760001D01*
X134290000Y-66859999D01*
X134291204Y-66835495D01*
X134294804Y-66811227D01*
X134300765Y-66787428D01*
X134309030Y-66764329D01*
X134319520Y-66742150D01*
X134332132Y-66721107D01*
X134346747Y-66701401D01*
X134363223Y-66683223D01*
X134381401Y-66666747D01*
X134401107Y-66652132D01*
X134422150Y-66639520D01*
X134444329Y-66629030D01*
X134467428Y-66620765D01*
X134491227Y-66614804D01*
X134515495Y-66611204D01*
X134539999Y-66610000D01*
X135190001Y-66610000D01*
X135214505Y-66611204D01*
G37*
G36*
X137264505Y-70548204D02*
G01*
X137288773Y-70551804D01*
X137312572Y-70557765D01*
X137335671Y-70566030D01*
X137357850Y-70576520D01*
X137378893Y-70589132D01*
X137398599Y-70603747D01*
X137416777Y-70620223D01*
X137433253Y-70638401D01*
X137447868Y-70658107D01*
X137460480Y-70679150D01*
X137470970Y-70701329D01*
X137479235Y-70724428D01*
X137485196Y-70748227D01*
X137488796Y-70772495D01*
X137490000Y-70796999D01*
X137490000Y-71697001D01*
X137488796Y-71721505D01*
X137485196Y-71745773D01*
X137479235Y-71769572D01*
X137470970Y-71792671D01*
X137460480Y-71814850D01*
X137447868Y-71835893D01*
X137433253Y-71855599D01*
X137416777Y-71873777D01*
X137398599Y-71890253D01*
X137378893Y-71904868D01*
X137357850Y-71917480D01*
X137335671Y-71927970D01*
X137312572Y-71936235D01*
X137288773Y-71942196D01*
X137264505Y-71945796D01*
X137240001Y-71947000D01*
X136589999Y-71947000D01*
X136565495Y-71945796D01*
X136541227Y-71942196D01*
X136517428Y-71936235D01*
X136494329Y-71927970D01*
X136472150Y-71917480D01*
X136451107Y-71904868D01*
X136431401Y-71890253D01*
X136413223Y-71873777D01*
X136396747Y-71855599D01*
X136382132Y-71835893D01*
X136369520Y-71814850D01*
X136359030Y-71792671D01*
X136350765Y-71769572D01*
X136344804Y-71745773D01*
X136341204Y-71721505D01*
X136340000Y-71697001D01*
X136340000Y-70796999D01*
X136341204Y-70772495D01*
X136344804Y-70748227D01*
X136350765Y-70724428D01*
X136359030Y-70701329D01*
X136369520Y-70679150D01*
X136382132Y-70658107D01*
X136396747Y-70638401D01*
X136413223Y-70620223D01*
X136431401Y-70603747D01*
X136451107Y-70589132D01*
X136472150Y-70576520D01*
X136494329Y-70566030D01*
X136517428Y-70557765D01*
X136541227Y-70551804D01*
X136565495Y-70548204D01*
X136589999Y-70547000D01*
X137240001Y-70547000D01*
X137264505Y-70548204D01*
G37*
G36*
X135214505Y-70548204D02*
G01*
X135238773Y-70551804D01*
X135262572Y-70557765D01*
X135285671Y-70566030D01*
X135307850Y-70576520D01*
X135328893Y-70589132D01*
X135348599Y-70603747D01*
X135366777Y-70620223D01*
X135383253Y-70638401D01*
X135397868Y-70658107D01*
X135410480Y-70679150D01*
X135420970Y-70701329D01*
X135429235Y-70724428D01*
X135435196Y-70748227D01*
X135438796Y-70772495D01*
X135440000Y-70796999D01*
X135440000Y-71697001D01*
X135438796Y-71721505D01*
X135435196Y-71745773D01*
X135429235Y-71769572D01*
X135420970Y-71792671D01*
X135410480Y-71814850D01*
X135397868Y-71835893D01*
X135383253Y-71855599D01*
X135366777Y-71873777D01*
X135348599Y-71890253D01*
X135328893Y-71904868D01*
X135307850Y-71917480D01*
X135285671Y-71927970D01*
X135262572Y-71936235D01*
X135238773Y-71942196D01*
X135214505Y-71945796D01*
X135190001Y-71947000D01*
X134539999Y-71947000D01*
X134515495Y-71945796D01*
X134491227Y-71942196D01*
X134467428Y-71936235D01*
X134444329Y-71927970D01*
X134422150Y-71917480D01*
X134401107Y-71904868D01*
X134381401Y-71890253D01*
X134363223Y-71873777D01*
X134346747Y-71855599D01*
X134332132Y-71835893D01*
X134319520Y-71814850D01*
X134309030Y-71792671D01*
X134300765Y-71769572D01*
X134294804Y-71745773D01*
X134291204Y-71721505D01*
X134290000Y-71697001D01*
X134290000Y-70796999D01*
X134291204Y-70772495D01*
X134294804Y-70748227D01*
X134300765Y-70724428D01*
X134309030Y-70701329D01*
X134319520Y-70679150D01*
X134332132Y-70658107D01*
X134346747Y-70638401D01*
X134363223Y-70620223D01*
X134381401Y-70603747D01*
X134401107Y-70589132D01*
X134422150Y-70576520D01*
X134444329Y-70566030D01*
X134467428Y-70557765D01*
X134491227Y-70551804D01*
X134515495Y-70548204D01*
X134539999Y-70547000D01*
X135190001Y-70547000D01*
X135214505Y-70548204D01*
G37*
G36*
X168379505Y-66484204D02*
G01*
X168403773Y-66487804D01*
X168427572Y-66493765D01*
X168450671Y-66502030D01*
X168472850Y-66512520D01*
X168493893Y-66525132D01*
X168513599Y-66539747D01*
X168531777Y-66556223D01*
X168548253Y-66574401D01*
X168562868Y-66594107D01*
X168575480Y-66615150D01*
X168585970Y-66637329D01*
X168594235Y-66660428D01*
X168600196Y-66684227D01*
X168603796Y-66708495D01*
X168605000Y-66732999D01*
X168605000Y-67633001D01*
X168603796Y-67657505D01*
X168600196Y-67681773D01*
X168594235Y-67705572D01*
X168585970Y-67728671D01*
X168575480Y-67750850D01*
X168562868Y-67771893D01*
X168548253Y-67791599D01*
X168531777Y-67809777D01*
X168513599Y-67826253D01*
X168493893Y-67840868D01*
X168472850Y-67853480D01*
X168450671Y-67863970D01*
X168427572Y-67872235D01*
X168403773Y-67878196D01*
X168379505Y-67881796D01*
X168355001Y-67883000D01*
X167704999Y-67883000D01*
X167680495Y-67881796D01*
X167656227Y-67878196D01*
X167632428Y-67872235D01*
X167609329Y-67863970D01*
X167587150Y-67853480D01*
X167566107Y-67840868D01*
X167546401Y-67826253D01*
X167528223Y-67809777D01*
X167511747Y-67791599D01*
X167497132Y-67771893D01*
X167484520Y-67750850D01*
X167474030Y-67728671D01*
X167465765Y-67705572D01*
X167459804Y-67681773D01*
X167456204Y-67657505D01*
X167455000Y-67633001D01*
X167455000Y-66732999D01*
X167456204Y-66708495D01*
X167459804Y-66684227D01*
X167465765Y-66660428D01*
X167474030Y-66637329D01*
X167484520Y-66615150D01*
X167497132Y-66594107D01*
X167511747Y-66574401D01*
X167528223Y-66556223D01*
X167546401Y-66539747D01*
X167566107Y-66525132D01*
X167587150Y-66512520D01*
X167609329Y-66502030D01*
X167632428Y-66493765D01*
X167656227Y-66487804D01*
X167680495Y-66484204D01*
X167704999Y-66483000D01*
X168355001Y-66483000D01*
X168379505Y-66484204D01*
G37*
G36*
X166329505Y-66484204D02*
G01*
X166353773Y-66487804D01*
X166377572Y-66493765D01*
X166400671Y-66502030D01*
X166422850Y-66512520D01*
X166443893Y-66525132D01*
X166463599Y-66539747D01*
X166481777Y-66556223D01*
X166498253Y-66574401D01*
X166512868Y-66594107D01*
X166525480Y-66615150D01*
X166535970Y-66637329D01*
X166544235Y-66660428D01*
X166550196Y-66684227D01*
X166553796Y-66708495D01*
X166555000Y-66732999D01*
X166555000Y-67633001D01*
X166553796Y-67657505D01*
X166550196Y-67681773D01*
X166544235Y-67705572D01*
X166535970Y-67728671D01*
X166525480Y-67750850D01*
X166512868Y-67771893D01*
X166498253Y-67791599D01*
X166481777Y-67809777D01*
X166463599Y-67826253D01*
X166443893Y-67840868D01*
X166422850Y-67853480D01*
X166400671Y-67863970D01*
X166377572Y-67872235D01*
X166353773Y-67878196D01*
X166329505Y-67881796D01*
X166305001Y-67883000D01*
X165654999Y-67883000D01*
X165630495Y-67881796D01*
X165606227Y-67878196D01*
X165582428Y-67872235D01*
X165559329Y-67863970D01*
X165537150Y-67853480D01*
X165516107Y-67840868D01*
X165496401Y-67826253D01*
X165478223Y-67809777D01*
X165461747Y-67791599D01*
X165447132Y-67771893D01*
X165434520Y-67750850D01*
X165424030Y-67728671D01*
X165415765Y-67705572D01*
X165409804Y-67681773D01*
X165406204Y-67657505D01*
X165405000Y-67633001D01*
X165405000Y-66732999D01*
X165406204Y-66708495D01*
X165409804Y-66684227D01*
X165415765Y-66660428D01*
X165424030Y-66637329D01*
X165434520Y-66615150D01*
X165447132Y-66594107D01*
X165461747Y-66574401D01*
X165478223Y-66556223D01*
X165496401Y-66539747D01*
X165516107Y-66525132D01*
X165537150Y-66512520D01*
X165559329Y-66502030D01*
X165582428Y-66493765D01*
X165606227Y-66487804D01*
X165630495Y-66484204D01*
X165654999Y-66483000D01*
X166305001Y-66483000D01*
X166329505Y-66484204D01*
G37*
G36*
X168506505Y-70421204D02*
G01*
X168530773Y-70424804D01*
X168554572Y-70430765D01*
X168577671Y-70439030D01*
X168599850Y-70449520D01*
X168620893Y-70462132D01*
X168640599Y-70476747D01*
X168658777Y-70493223D01*
X168675253Y-70511401D01*
X168689868Y-70531107D01*
X168702480Y-70552150D01*
X168712970Y-70574329D01*
X168721235Y-70597428D01*
X168727196Y-70621227D01*
X168730796Y-70645495D01*
X168732000Y-70669999D01*
X168732000Y-71570001D01*
X168730796Y-71594505D01*
X168727196Y-71618773D01*
X168721235Y-71642572D01*
X168712970Y-71665671D01*
X168702480Y-71687850D01*
X168689868Y-71708893D01*
X168675253Y-71728599D01*
X168658777Y-71746777D01*
X168640599Y-71763253D01*
X168620893Y-71777868D01*
X168599850Y-71790480D01*
X168577671Y-71800970D01*
X168554572Y-71809235D01*
X168530773Y-71815196D01*
X168506505Y-71818796D01*
X168482001Y-71820000D01*
X167831999Y-71820000D01*
X167807495Y-71818796D01*
X167783227Y-71815196D01*
X167759428Y-71809235D01*
X167736329Y-71800970D01*
X167714150Y-71790480D01*
X167693107Y-71777868D01*
X167673401Y-71763253D01*
X167655223Y-71746777D01*
X167638747Y-71728599D01*
X167624132Y-71708893D01*
X167611520Y-71687850D01*
X167601030Y-71665671D01*
X167592765Y-71642572D01*
X167586804Y-71618773D01*
X167583204Y-71594505D01*
X167582000Y-71570001D01*
X167582000Y-70669999D01*
X167583204Y-70645495D01*
X167586804Y-70621227D01*
X167592765Y-70597428D01*
X167601030Y-70574329D01*
X167611520Y-70552150D01*
X167624132Y-70531107D01*
X167638747Y-70511401D01*
X167655223Y-70493223D01*
X167673401Y-70476747D01*
X167693107Y-70462132D01*
X167714150Y-70449520D01*
X167736329Y-70439030D01*
X167759428Y-70430765D01*
X167783227Y-70424804D01*
X167807495Y-70421204D01*
X167831999Y-70420000D01*
X168482001Y-70420000D01*
X168506505Y-70421204D01*
G37*
G36*
X166456505Y-70421204D02*
G01*
X166480773Y-70424804D01*
X166504572Y-70430765D01*
X166527671Y-70439030D01*
X166549850Y-70449520D01*
X166570893Y-70462132D01*
X166590599Y-70476747D01*
X166608777Y-70493223D01*
X166625253Y-70511401D01*
X166639868Y-70531107D01*
X166652480Y-70552150D01*
X166662970Y-70574329D01*
X166671235Y-70597428D01*
X166677196Y-70621227D01*
X166680796Y-70645495D01*
X166682000Y-70669999D01*
X166682000Y-71570001D01*
X166680796Y-71594505D01*
X166677196Y-71618773D01*
X166671235Y-71642572D01*
X166662970Y-71665671D01*
X166652480Y-71687850D01*
X166639868Y-71708893D01*
X166625253Y-71728599D01*
X166608777Y-71746777D01*
X166590599Y-71763253D01*
X166570893Y-71777868D01*
X166549850Y-71790480D01*
X166527671Y-71800970D01*
X166504572Y-71809235D01*
X166480773Y-71815196D01*
X166456505Y-71818796D01*
X166432001Y-71820000D01*
X165781999Y-71820000D01*
X165757495Y-71818796D01*
X165733227Y-71815196D01*
X165709428Y-71809235D01*
X165686329Y-71800970D01*
X165664150Y-71790480D01*
X165643107Y-71777868D01*
X165623401Y-71763253D01*
X165605223Y-71746777D01*
X165588747Y-71728599D01*
X165574132Y-71708893D01*
X165561520Y-71687850D01*
X165551030Y-71665671D01*
X165542765Y-71642572D01*
X165536804Y-71618773D01*
X165533204Y-71594505D01*
X165532000Y-71570001D01*
X165532000Y-70669999D01*
X165533204Y-70645495D01*
X165536804Y-70621227D01*
X165542765Y-70597428D01*
X165551030Y-70574329D01*
X165561520Y-70552150D01*
X165574132Y-70531107D01*
X165588747Y-70511401D01*
X165605223Y-70493223D01*
X165623401Y-70476747D01*
X165643107Y-70462132D01*
X165664150Y-70449520D01*
X165686329Y-70439030D01*
X165709428Y-70430765D01*
X165733227Y-70424804D01*
X165757495Y-70421204D01*
X165781999Y-70420000D01*
X166432001Y-70420000D01*
X166456505Y-70421204D01*
G37*
D14*
X126238000Y-107970000D03*
X126238000Y-110470000D03*
X149098000Y-107970000D03*
X149098000Y-110470000D03*
D15*
X144780000Y-110490000D03*
X144780000Y-107950000D03*
X144780000Y-105410000D03*
X144780000Y-102870000D03*
X144780000Y-100330000D03*
X144780000Y-97790000D03*
X144780000Y-95250000D03*
X144780000Y-92710000D03*
X144780000Y-90170000D03*
X144780000Y-87630000D03*
X144780000Y-85090000D03*
X144780000Y-82550000D03*
X144780000Y-80010000D03*
X144780000Y-77470000D03*
X129540000Y-77470000D03*
X129540000Y-80010000D03*
X129540000Y-82550000D03*
X129540000Y-85090000D03*
X129540000Y-87630000D03*
X129540000Y-90170000D03*
X129540000Y-92710000D03*
X129540000Y-95250000D03*
X129540000Y-97790000D03*
X129540000Y-100330000D03*
X129540000Y-102870000D03*
X129540000Y-105410000D03*
X129540000Y-107950000D03*
X129540000Y-110490000D03*
X167640000Y-110490000D03*
X167640000Y-107950000D03*
X167640000Y-105410000D03*
X167640000Y-102870000D03*
X167640000Y-100330000D03*
X167640000Y-97790000D03*
X167640000Y-95250000D03*
X167640000Y-92710000D03*
X167640000Y-90170000D03*
X167640000Y-87630000D03*
X167640000Y-85090000D03*
X167640000Y-82550000D03*
X167640000Y-80010000D03*
X167640000Y-77470000D03*
X152400000Y-77470000D03*
X152400000Y-80010000D03*
X152400000Y-82550000D03*
X152400000Y-85090000D03*
X152400000Y-87630000D03*
X152400000Y-90170000D03*
X152400000Y-92710000D03*
X152400000Y-95250000D03*
X152400000Y-97790000D03*
X152400000Y-100330000D03*
X152400000Y-102870000D03*
X152400000Y-105410000D03*
X152400000Y-107950000D03*
X152400000Y-110490000D03*
M02*
