G04 #@! TF.GenerationSoftware,KiCad,Pcbnew,(5.1.5-0-10_14)*
G04 #@! TF.CreationDate,2020-07-12T14:24:48+02:00*
G04 #@! TF.ProjectId,OpenC16Cart,4f70656e-4331-4364-9361-72742e6b6963,3*
G04 #@! TF.SameCoordinates,Original*
G04 #@! TF.FileFunction,Legend,Bot*
G04 #@! TF.FilePolarity,Positive*
%FSLAX46Y46*%
G04 Gerber Fmt 4.6, Leading zero omitted, Abs format (unit mm)*
G04 Created by KiCad (PCBNEW (5.1.5-0-10_14)) date 2020-07-12 14:24:48*
%MOMM*%
%LPD*%
G04 APERTURE LIST*
%ADD10C,0.200000*%
G04 APERTURE END LIST*
D10*
X130301380Y-66519238D02*
X131301380Y-66852571D01*
X130301380Y-67185904D01*
X131253761Y-67900190D02*
X131301380Y-67804952D01*
X131301380Y-67614476D01*
X131253761Y-67519238D01*
X131158523Y-67471619D01*
X130777571Y-67471619D01*
X130682333Y-67519238D01*
X130634714Y-67614476D01*
X130634714Y-67804952D01*
X130682333Y-67900190D01*
X130777571Y-67947809D01*
X130872809Y-67947809D01*
X130968047Y-67471619D01*
X131301380Y-68376380D02*
X130634714Y-68376380D01*
X130825190Y-68376380D02*
X130729952Y-68424000D01*
X130682333Y-68471619D01*
X130634714Y-68566857D01*
X130634714Y-68662095D01*
X131253761Y-68947809D02*
X131301380Y-69043047D01*
X131301380Y-69233523D01*
X131253761Y-69328761D01*
X131158523Y-69376380D01*
X131110904Y-69376380D01*
X131015666Y-69328761D01*
X130968047Y-69233523D01*
X130968047Y-69090666D01*
X130920428Y-68995428D01*
X130825190Y-68947809D01*
X130777571Y-68947809D01*
X130682333Y-68995428D01*
X130634714Y-69090666D01*
X130634714Y-69233523D01*
X130682333Y-69328761D01*
X131301380Y-69804952D02*
X130634714Y-69804952D01*
X130301380Y-69804952D02*
X130349000Y-69757333D01*
X130396619Y-69804952D01*
X130349000Y-69852571D01*
X130301380Y-69804952D01*
X130396619Y-69804952D01*
X131301380Y-70424000D02*
X131253761Y-70328761D01*
X131206142Y-70281142D01*
X131110904Y-70233523D01*
X130825190Y-70233523D01*
X130729952Y-70281142D01*
X130682333Y-70328761D01*
X130634714Y-70424000D01*
X130634714Y-70566857D01*
X130682333Y-70662095D01*
X130729952Y-70709714D01*
X130825190Y-70757333D01*
X131110904Y-70757333D01*
X131206142Y-70709714D01*
X131253761Y-70662095D01*
X131301380Y-70566857D01*
X131301380Y-70424000D01*
X130634714Y-71185904D02*
X131301380Y-71185904D01*
X130729952Y-71185904D02*
X130682333Y-71233523D01*
X130634714Y-71328761D01*
X130634714Y-71471619D01*
X130682333Y-71566857D01*
X130777571Y-71614476D01*
X131301380Y-71614476D01*
X131301380Y-73376380D02*
X131301380Y-72804952D01*
X131301380Y-73090666D02*
X130301380Y-73090666D01*
X130444238Y-72995428D01*
X130539476Y-72900190D01*
X130587095Y-72804952D01*
X133001380Y-67185904D02*
X133001380Y-66614476D01*
X133001380Y-66900190D02*
X132001380Y-66900190D01*
X132144238Y-66804952D01*
X132239476Y-66709714D01*
X132287095Y-66614476D01*
X132096619Y-67566857D02*
X132049000Y-67614476D01*
X132001380Y-67709714D01*
X132001380Y-67947809D01*
X132049000Y-68043047D01*
X132096619Y-68090666D01*
X132191857Y-68138285D01*
X132287095Y-68138285D01*
X132429952Y-68090666D01*
X133001380Y-67519238D01*
X133001380Y-68138285D01*
X132906142Y-68566857D02*
X132953761Y-68614476D01*
X133001380Y-68566857D01*
X132953761Y-68519238D01*
X132906142Y-68566857D01*
X133001380Y-68566857D01*
X132001380Y-70090666D02*
X132715666Y-70090666D01*
X132858523Y-70043047D01*
X132953761Y-69947809D01*
X133001380Y-69804952D01*
X133001380Y-69709714D01*
X132334714Y-70995428D02*
X133001380Y-70995428D01*
X132334714Y-70566857D02*
X132858523Y-70566857D01*
X132953761Y-70614476D01*
X133001380Y-70709714D01*
X133001380Y-70852571D01*
X132953761Y-70947809D01*
X132906142Y-70995428D01*
X133001380Y-71614476D02*
X132953761Y-71519238D01*
X132858523Y-71471619D01*
X132001380Y-71471619D01*
X133001380Y-71995428D02*
X132334714Y-71995428D01*
X132001380Y-71995428D02*
X132049000Y-71947809D01*
X132096619Y-71995428D01*
X132049000Y-72043047D01*
X132001380Y-71995428D01*
X132096619Y-71995428D01*
X132096619Y-73185904D02*
X132049000Y-73233523D01*
X132001380Y-73328761D01*
X132001380Y-73566857D01*
X132049000Y-73662095D01*
X132096619Y-73709714D01*
X132191857Y-73757333D01*
X132287095Y-73757333D01*
X132429952Y-73709714D01*
X133001380Y-73138285D01*
X133001380Y-73757333D01*
X132001380Y-74376380D02*
X132001380Y-74471619D01*
X132049000Y-74566857D01*
X132096619Y-74614476D01*
X132191857Y-74662095D01*
X132382333Y-74709714D01*
X132620428Y-74709714D01*
X132810904Y-74662095D01*
X132906142Y-74614476D01*
X132953761Y-74566857D01*
X133001380Y-74471619D01*
X133001380Y-74376380D01*
X132953761Y-74281142D01*
X132906142Y-74233523D01*
X132810904Y-74185904D01*
X132620428Y-74138285D01*
X132382333Y-74138285D01*
X132191857Y-74185904D01*
X132096619Y-74233523D01*
X132049000Y-74281142D01*
X132001380Y-74376380D01*
X132096619Y-75090666D02*
X132049000Y-75138285D01*
X132001380Y-75233523D01*
X132001380Y-75471619D01*
X132049000Y-75566857D01*
X132096619Y-75614476D01*
X132191857Y-75662095D01*
X132287095Y-75662095D01*
X132429952Y-75614476D01*
X133001380Y-75043047D01*
X133001380Y-75662095D01*
X132001380Y-76281142D02*
X132001380Y-76376380D01*
X132049000Y-76471619D01*
X132096619Y-76519238D01*
X132191857Y-76566857D01*
X132382333Y-76614476D01*
X132620428Y-76614476D01*
X132810904Y-76566857D01*
X132906142Y-76519238D01*
X132953761Y-76471619D01*
X133001380Y-76376380D01*
X133001380Y-76281142D01*
X132953761Y-76185904D01*
X132906142Y-76138285D01*
X132810904Y-76090666D01*
X132620428Y-76043047D01*
X132382333Y-76043047D01*
X132191857Y-76090666D01*
X132096619Y-76138285D01*
X132049000Y-76185904D01*
X132001380Y-76281142D01*
X146811380Y-102095095D02*
X147620904Y-102095095D01*
X147716142Y-102142714D01*
X147763761Y-102190333D01*
X147811380Y-102285571D01*
X147811380Y-102476047D01*
X147763761Y-102571285D01*
X147716142Y-102618904D01*
X147620904Y-102666523D01*
X146811380Y-102666523D01*
X147811380Y-103666523D02*
X147811380Y-103095095D01*
X147811380Y-103380809D02*
X146811380Y-103380809D01*
X146954238Y-103285571D01*
X147049476Y-103190333D01*
X147097095Y-103095095D01*
X147716142Y-104095095D02*
X147763761Y-104142714D01*
X147811380Y-104095095D01*
X147763761Y-104047476D01*
X147716142Y-104095095D01*
X147811380Y-104095095D01*
X147192333Y-104095095D02*
X147239952Y-104142714D01*
X147287571Y-104095095D01*
X147239952Y-104047476D01*
X147192333Y-104095095D01*
X147287571Y-104095095D01*
X147811380Y-105809380D02*
X147811380Y-105333190D01*
X146811380Y-105333190D01*
X147811380Y-106285571D02*
X147763761Y-106190333D01*
X147716142Y-106142714D01*
X147620904Y-106095095D01*
X147335190Y-106095095D01*
X147239952Y-106142714D01*
X147192333Y-106190333D01*
X147144714Y-106285571D01*
X147144714Y-106428428D01*
X147192333Y-106523666D01*
X147239952Y-106571285D01*
X147335190Y-106618904D01*
X147620904Y-106618904D01*
X147716142Y-106571285D01*
X147763761Y-106523666D01*
X147811380Y-106428428D01*
X147811380Y-106285571D01*
X147144714Y-106952238D02*
X147811380Y-107142714D01*
X147335190Y-107333190D01*
X147811380Y-107523666D01*
X147144714Y-107714142D01*
X147763761Y-108476047D02*
X147811380Y-108380809D01*
X147811380Y-108190333D01*
X147763761Y-108095095D01*
X147668523Y-108047476D01*
X147287571Y-108047476D01*
X147192333Y-108095095D01*
X147144714Y-108190333D01*
X147144714Y-108380809D01*
X147192333Y-108476047D01*
X147287571Y-108523666D01*
X147382809Y-108523666D01*
X147478047Y-108047476D01*
X147811380Y-108952238D02*
X147144714Y-108952238D01*
X147335190Y-108952238D02*
X147239952Y-108999857D01*
X147192333Y-109047476D01*
X147144714Y-109142714D01*
X147144714Y-109237952D01*
X147811380Y-110904619D02*
X147335190Y-110571285D01*
X147811380Y-110333190D02*
X146811380Y-110333190D01*
X146811380Y-110714142D01*
X146859000Y-110809380D01*
X146906619Y-110857000D01*
X147001857Y-110904619D01*
X147144714Y-110904619D01*
X147239952Y-110857000D01*
X147287571Y-110809380D01*
X147335190Y-110714142D01*
X147335190Y-110333190D01*
X146811380Y-111523666D02*
X146811380Y-111714142D01*
X146859000Y-111809380D01*
X146954238Y-111904619D01*
X147144714Y-111952238D01*
X147478047Y-111952238D01*
X147668523Y-111904619D01*
X147763761Y-111809380D01*
X147811380Y-111714142D01*
X147811380Y-111523666D01*
X147763761Y-111428428D01*
X147668523Y-111333190D01*
X147478047Y-111285571D01*
X147144714Y-111285571D01*
X146954238Y-111333190D01*
X146859000Y-111428428D01*
X146811380Y-111523666D01*
X147811380Y-112380809D02*
X146811380Y-112380809D01*
X147525666Y-112714142D01*
X146811380Y-113047476D01*
X147811380Y-113047476D01*
X148511380Y-102095095D02*
X149320904Y-102095095D01*
X149416142Y-102142714D01*
X149463761Y-102190333D01*
X149511380Y-102285571D01*
X149511380Y-102476047D01*
X149463761Y-102571285D01*
X149416142Y-102618904D01*
X149320904Y-102666523D01*
X148511380Y-102666523D01*
X148606619Y-103095095D02*
X148559000Y-103142714D01*
X148511380Y-103237952D01*
X148511380Y-103476047D01*
X148559000Y-103571285D01*
X148606619Y-103618904D01*
X148701857Y-103666523D01*
X148797095Y-103666523D01*
X148939952Y-103618904D01*
X149511380Y-103047476D01*
X149511380Y-103666523D01*
X149416142Y-104095095D02*
X149463761Y-104142714D01*
X149511380Y-104095095D01*
X149463761Y-104047476D01*
X149416142Y-104095095D01*
X149511380Y-104095095D01*
X148892333Y-104095095D02*
X148939952Y-104142714D01*
X148987571Y-104095095D01*
X148939952Y-104047476D01*
X148892333Y-104095095D01*
X148987571Y-104095095D01*
X148511380Y-105333190D02*
X149320904Y-105333190D01*
X149416142Y-105380809D01*
X149463761Y-105428428D01*
X149511380Y-105523666D01*
X149511380Y-105714142D01*
X149463761Y-105809380D01*
X149416142Y-105857000D01*
X149320904Y-105904619D01*
X148511380Y-105904619D01*
X148844714Y-106380809D02*
X149844714Y-106380809D01*
X148892333Y-106380809D02*
X148844714Y-106476047D01*
X148844714Y-106666523D01*
X148892333Y-106761761D01*
X148939952Y-106809380D01*
X149035190Y-106857000D01*
X149320904Y-106857000D01*
X149416142Y-106809380D01*
X149463761Y-106761761D01*
X149511380Y-106666523D01*
X149511380Y-106476047D01*
X149463761Y-106380809D01*
X148844714Y-107285571D02*
X149844714Y-107285571D01*
X148892333Y-107285571D02*
X148844714Y-107380809D01*
X148844714Y-107571285D01*
X148892333Y-107666523D01*
X148939952Y-107714142D01*
X149035190Y-107761761D01*
X149320904Y-107761761D01*
X149416142Y-107714142D01*
X149463761Y-107666523D01*
X149511380Y-107571285D01*
X149511380Y-107380809D01*
X149463761Y-107285571D01*
X149463761Y-108571285D02*
X149511380Y-108476047D01*
X149511380Y-108285571D01*
X149463761Y-108190333D01*
X149368523Y-108142714D01*
X148987571Y-108142714D01*
X148892333Y-108190333D01*
X148844714Y-108285571D01*
X148844714Y-108476047D01*
X148892333Y-108571285D01*
X148987571Y-108618904D01*
X149082809Y-108618904D01*
X149178047Y-108142714D01*
X149511380Y-109047476D02*
X148844714Y-109047476D01*
X149035190Y-109047476D02*
X148939952Y-109095095D01*
X148892333Y-109142714D01*
X148844714Y-109237952D01*
X148844714Y-109333190D01*
X149511380Y-110999857D02*
X149035190Y-110666523D01*
X149511380Y-110428428D02*
X148511380Y-110428428D01*
X148511380Y-110809380D01*
X148559000Y-110904619D01*
X148606619Y-110952238D01*
X148701857Y-110999857D01*
X148844714Y-110999857D01*
X148939952Y-110952238D01*
X148987571Y-110904619D01*
X149035190Y-110809380D01*
X149035190Y-110428428D01*
X148511380Y-111618904D02*
X148511380Y-111809380D01*
X148559000Y-111904619D01*
X148654238Y-111999857D01*
X148844714Y-112047476D01*
X149178047Y-112047476D01*
X149368523Y-111999857D01*
X149463761Y-111904619D01*
X149511380Y-111809380D01*
X149511380Y-111618904D01*
X149463761Y-111523666D01*
X149368523Y-111428428D01*
X149178047Y-111380809D01*
X148844714Y-111380809D01*
X148654238Y-111428428D01*
X148559000Y-111523666D01*
X148511380Y-111618904D01*
X149511380Y-112476047D02*
X148511380Y-112476047D01*
X149225666Y-112809380D01*
X148511380Y-113142714D01*
X149511380Y-113142714D01*
X169639619Y-94427476D02*
X169592000Y-94475095D01*
X169544380Y-94570333D01*
X169544380Y-94808428D01*
X169592000Y-94903666D01*
X169639619Y-94951285D01*
X169734857Y-94998904D01*
X169830095Y-94998904D01*
X169972952Y-94951285D01*
X170544380Y-94379857D01*
X170544380Y-94998904D01*
X169544380Y-95332238D02*
X169544380Y-95998904D01*
X170544380Y-95570333D01*
X169544380Y-96856047D02*
X169544380Y-96379857D01*
X170020571Y-96332238D01*
X169972952Y-96379857D01*
X169925333Y-96475095D01*
X169925333Y-96713190D01*
X169972952Y-96808428D01*
X170020571Y-96856047D01*
X170115809Y-96903666D01*
X170353904Y-96903666D01*
X170449142Y-96856047D01*
X170496761Y-96808428D01*
X170544380Y-96713190D01*
X170544380Y-96475095D01*
X170496761Y-96379857D01*
X170449142Y-96332238D01*
X170544380Y-97856047D02*
X170544380Y-97284619D01*
X170544380Y-97570333D02*
X169544380Y-97570333D01*
X169687238Y-97475095D01*
X169782476Y-97379857D01*
X169830095Y-97284619D01*
X169639619Y-98237000D02*
X169592000Y-98284619D01*
X169544380Y-98379857D01*
X169544380Y-98617952D01*
X169592000Y-98713190D01*
X169639619Y-98760809D01*
X169734857Y-98808428D01*
X169830095Y-98808428D01*
X169972952Y-98760809D01*
X170544380Y-98189380D01*
X170544380Y-98808428D01*
X170544380Y-99998904D02*
X169544380Y-99998904D01*
X169544380Y-100379857D01*
X169592000Y-100475095D01*
X169639619Y-100522714D01*
X169734857Y-100570333D01*
X169877714Y-100570333D01*
X169972952Y-100522714D01*
X170020571Y-100475095D01*
X170068190Y-100379857D01*
X170068190Y-99998904D01*
X170544380Y-101141761D02*
X170496761Y-101046523D01*
X170449142Y-100998904D01*
X170353904Y-100951285D01*
X170068190Y-100951285D01*
X169972952Y-100998904D01*
X169925333Y-101046523D01*
X169877714Y-101141761D01*
X169877714Y-101284619D01*
X169925333Y-101379857D01*
X169972952Y-101427476D01*
X170068190Y-101475095D01*
X170353904Y-101475095D01*
X170449142Y-101427476D01*
X170496761Y-101379857D01*
X170544380Y-101284619D01*
X170544380Y-101141761D01*
X169877714Y-101903666D02*
X170877714Y-101903666D01*
X169925333Y-101903666D02*
X169877714Y-101998904D01*
X169877714Y-102189380D01*
X169925333Y-102284619D01*
X169972952Y-102332238D01*
X170068190Y-102379857D01*
X170353904Y-102379857D01*
X170449142Y-102332238D01*
X170496761Y-102284619D01*
X170544380Y-102189380D01*
X170544380Y-101998904D01*
X170496761Y-101903666D01*
X169877714Y-103237000D02*
X170544380Y-103237000D01*
X169877714Y-102808428D02*
X170401523Y-102808428D01*
X170496761Y-102856047D01*
X170544380Y-102951285D01*
X170544380Y-103094142D01*
X170496761Y-103189380D01*
X170449142Y-103237000D01*
X170544380Y-103856047D02*
X170496761Y-103760809D01*
X170401523Y-103713190D01*
X169544380Y-103713190D01*
X170544380Y-104665571D02*
X170020571Y-104665571D01*
X169925333Y-104617952D01*
X169877714Y-104522714D01*
X169877714Y-104332238D01*
X169925333Y-104237000D01*
X170496761Y-104665571D02*
X170544380Y-104570333D01*
X170544380Y-104332238D01*
X170496761Y-104237000D01*
X170401523Y-104189380D01*
X170306285Y-104189380D01*
X170211047Y-104237000D01*
X170163428Y-104332238D01*
X170163428Y-104570333D01*
X170115809Y-104665571D01*
X169877714Y-104998904D02*
X169877714Y-105379857D01*
X169544380Y-105141761D02*
X170401523Y-105141761D01*
X170496761Y-105189380D01*
X170544380Y-105284619D01*
X170544380Y-105379857D01*
X170496761Y-106094142D02*
X170544380Y-105998904D01*
X170544380Y-105808428D01*
X170496761Y-105713190D01*
X170401523Y-105665571D01*
X170020571Y-105665571D01*
X169925333Y-105713190D01*
X169877714Y-105808428D01*
X169877714Y-105998904D01*
X169925333Y-106094142D01*
X170020571Y-106141761D01*
X170115809Y-106141761D01*
X170211047Y-105665571D01*
X170544380Y-107903666D02*
X170068190Y-107570333D01*
X170544380Y-107332238D02*
X169544380Y-107332238D01*
X169544380Y-107713190D01*
X169592000Y-107808428D01*
X169639619Y-107856047D01*
X169734857Y-107903666D01*
X169877714Y-107903666D01*
X169972952Y-107856047D01*
X170020571Y-107808428D01*
X170068190Y-107713190D01*
X170068190Y-107332238D01*
X170544380Y-108856047D02*
X170544380Y-108284619D01*
X170544380Y-108570333D02*
X169544380Y-108570333D01*
X169687238Y-108475095D01*
X169782476Y-108379857D01*
X169830095Y-108284619D01*
X170163428Y-109284619D02*
X170163428Y-110046523D01*
X170544380Y-111094142D02*
X170068190Y-110760809D01*
X170544380Y-110522714D02*
X169544380Y-110522714D01*
X169544380Y-110903666D01*
X169592000Y-110998904D01*
X169639619Y-111046523D01*
X169734857Y-111094142D01*
X169877714Y-111094142D01*
X169972952Y-111046523D01*
X170020571Y-110998904D01*
X170068190Y-110903666D01*
X170068190Y-110522714D01*
X169877714Y-111951285D02*
X170544380Y-111951285D01*
X169496761Y-111713190D02*
X170211047Y-111475095D01*
X170211047Y-112094142D01*
X170925333Y-113522714D02*
X170877714Y-113475095D01*
X170734857Y-113379857D01*
X170639619Y-113332238D01*
X170496761Y-113284619D01*
X170258666Y-113237000D01*
X170068190Y-113237000D01*
X169830095Y-113284619D01*
X169687238Y-113332238D01*
X169592000Y-113379857D01*
X169449142Y-113475095D01*
X169401523Y-113522714D01*
X170544380Y-114427476D02*
X170544380Y-113856047D01*
X170544380Y-114141761D02*
X169544380Y-114141761D01*
X169687238Y-114046523D01*
X169782476Y-113951285D01*
X169830095Y-113856047D01*
X169544380Y-115046523D02*
X169544380Y-115141761D01*
X169592000Y-115237000D01*
X169639619Y-115284619D01*
X169734857Y-115332238D01*
X169925333Y-115379857D01*
X170163428Y-115379857D01*
X170353904Y-115332238D01*
X170449142Y-115284619D01*
X170496761Y-115237000D01*
X170544380Y-115141761D01*
X170544380Y-115046523D01*
X170496761Y-114951285D01*
X170449142Y-114903666D01*
X170353904Y-114856047D01*
X170163428Y-114808428D01*
X169925333Y-114808428D01*
X169734857Y-114856047D01*
X169639619Y-114903666D01*
X169592000Y-114951285D01*
X169544380Y-115046523D01*
X170544380Y-115808428D02*
X169544380Y-115808428D01*
X170163428Y-115903666D02*
X170544380Y-116189380D01*
X169877714Y-116189380D02*
X170258666Y-115808428D01*
X170544380Y-116570333D02*
X170544380Y-116808428D01*
X170353904Y-116808428D01*
X170306285Y-116713190D01*
X170211047Y-116617952D01*
X170068190Y-116570333D01*
X169830095Y-116570333D01*
X169687238Y-116617952D01*
X169592000Y-116713190D01*
X169544380Y-116856047D01*
X169544380Y-117046523D01*
X169592000Y-117189380D01*
X169687238Y-117284619D01*
X169830095Y-117332238D01*
X170068190Y-117332238D01*
X170211047Y-117284619D01*
X170306285Y-117189380D01*
X170353904Y-117094142D01*
X170544380Y-117094142D01*
X170544380Y-117332238D01*
X170925333Y-117665571D02*
X170877714Y-117713190D01*
X170734857Y-117808428D01*
X170639619Y-117856047D01*
X170496761Y-117903666D01*
X170258666Y-117951285D01*
X170068190Y-117951285D01*
X169830095Y-117903666D01*
X169687238Y-117856047D01*
X169592000Y-117808428D01*
X169449142Y-117713190D01*
X169401523Y-117665571D01*
X172196761Y-99760809D02*
X172244380Y-99903666D01*
X172244380Y-100141761D01*
X172196761Y-100236999D01*
X172149142Y-100284619D01*
X172053904Y-100332238D01*
X171958666Y-100332238D01*
X171863428Y-100284619D01*
X171815809Y-100236999D01*
X171768190Y-100141761D01*
X171720571Y-99951285D01*
X171672952Y-99856047D01*
X171625333Y-99808428D01*
X171530095Y-99760809D01*
X171434857Y-99760809D01*
X171339619Y-99808428D01*
X171292000Y-99856047D01*
X171244380Y-99951285D01*
X171244380Y-100189380D01*
X171292000Y-100332238D01*
X171244380Y-100665571D02*
X172244380Y-100903666D01*
X171530095Y-101094142D01*
X172244380Y-101284619D01*
X171244380Y-101522714D01*
X172244380Y-102427476D02*
X172244380Y-101856047D01*
X172244380Y-102141761D02*
X171244380Y-102141761D01*
X171387238Y-102046523D01*
X171482476Y-101951285D01*
X171530095Y-101856047D01*
X171863428Y-102856047D02*
X171863428Y-103617952D01*
X171577714Y-104522714D02*
X172244380Y-104522714D01*
X171196761Y-104284619D02*
X171911047Y-104046523D01*
X171911047Y-104665571D01*
X172196761Y-105760809D02*
X172244380Y-105856047D01*
X172244380Y-106046523D01*
X172196761Y-106141761D01*
X172101523Y-106189380D01*
X172053904Y-106189380D01*
X171958666Y-106141761D01*
X171911047Y-106046523D01*
X171911047Y-105903666D01*
X171863428Y-105808428D01*
X171768190Y-105760809D01*
X171720571Y-105760809D01*
X171625333Y-105808428D01*
X171577714Y-105903666D01*
X171577714Y-106046523D01*
X171625333Y-106141761D01*
X172196761Y-106998904D02*
X172244380Y-106903666D01*
X172244380Y-106713190D01*
X172196761Y-106617952D01*
X172101523Y-106570333D01*
X171720571Y-106570333D01*
X171625333Y-106617952D01*
X171577714Y-106713190D01*
X171577714Y-106903666D01*
X171625333Y-106998904D01*
X171720571Y-107046523D01*
X171815809Y-107046523D01*
X171911047Y-106570333D01*
X172244380Y-107617952D02*
X172196761Y-107522714D01*
X172101523Y-107475095D01*
X171244380Y-107475095D01*
X172196761Y-108379857D02*
X172244380Y-108284619D01*
X172244380Y-108094142D01*
X172196761Y-107998904D01*
X172101523Y-107951285D01*
X171720571Y-107951285D01*
X171625333Y-107998904D01*
X171577714Y-108094142D01*
X171577714Y-108284619D01*
X171625333Y-108379857D01*
X171720571Y-108427476D01*
X171815809Y-108427476D01*
X171911047Y-107951285D01*
X172196761Y-109284619D02*
X172244380Y-109189380D01*
X172244380Y-108998904D01*
X172196761Y-108903666D01*
X172149142Y-108856047D01*
X172053904Y-108808428D01*
X171768190Y-108808428D01*
X171672952Y-108856047D01*
X171625333Y-108903666D01*
X171577714Y-108998904D01*
X171577714Y-109189380D01*
X171625333Y-109284619D01*
X171577714Y-109570333D02*
X171577714Y-109951285D01*
X171244380Y-109713190D02*
X172101523Y-109713190D01*
X172196761Y-109760809D01*
X172244380Y-109856047D01*
X172244380Y-109951285D01*
X172196761Y-110236999D02*
X172244380Y-110332238D01*
X172244380Y-110522714D01*
X172196761Y-110617952D01*
X172101523Y-110665571D01*
X172053904Y-110665571D01*
X171958666Y-110617952D01*
X171911047Y-110522714D01*
X171911047Y-110379857D01*
X171863428Y-110284619D01*
X171768190Y-110236999D01*
X171720571Y-110236999D01*
X171625333Y-110284619D01*
X171577714Y-110379857D01*
X171577714Y-110522714D01*
X171625333Y-110617952D01*
X126265714Y-69924285D02*
X126337142Y-69852857D01*
X126408571Y-69638571D01*
X126408571Y-69495714D01*
X126337142Y-69281428D01*
X126194285Y-69138571D01*
X126051428Y-69067142D01*
X125765714Y-68995714D01*
X125551428Y-68995714D01*
X125265714Y-69067142D01*
X125122857Y-69138571D01*
X124980000Y-69281428D01*
X124908571Y-69495714D01*
X124908571Y-69638571D01*
X124980000Y-69852857D01*
X125051428Y-69924285D01*
X126408571Y-70781428D02*
X126337142Y-70638571D01*
X126265714Y-70567142D01*
X126122857Y-70495714D01*
X125694285Y-70495714D01*
X125551428Y-70567142D01*
X125480000Y-70638571D01*
X125408571Y-70781428D01*
X125408571Y-70995714D01*
X125480000Y-71138571D01*
X125551428Y-71210000D01*
X125694285Y-71281428D01*
X126122857Y-71281428D01*
X126265714Y-71210000D01*
X126337142Y-71138571D01*
X126408571Y-70995714D01*
X126408571Y-70781428D01*
X126408571Y-71924285D02*
X125408571Y-71924285D01*
X125551428Y-71924285D02*
X125480000Y-71995714D01*
X125408571Y-72138571D01*
X125408571Y-72352857D01*
X125480000Y-72495714D01*
X125622857Y-72567142D01*
X126408571Y-72567142D01*
X125622857Y-72567142D02*
X125480000Y-72638571D01*
X125408571Y-72781428D01*
X125408571Y-72995714D01*
X125480000Y-73138571D01*
X125622857Y-73210000D01*
X126408571Y-73210000D01*
X126408571Y-73924285D02*
X125408571Y-73924285D01*
X125551428Y-73924285D02*
X125480000Y-73995714D01*
X125408571Y-74138571D01*
X125408571Y-74352857D01*
X125480000Y-74495714D01*
X125622857Y-74567142D01*
X126408571Y-74567142D01*
X125622857Y-74567142D02*
X125480000Y-74638571D01*
X125408571Y-74781428D01*
X125408571Y-74995714D01*
X125480000Y-75138571D01*
X125622857Y-75210000D01*
X126408571Y-75210000D01*
X126408571Y-76138571D02*
X126337142Y-75995714D01*
X126265714Y-75924285D01*
X126122857Y-75852857D01*
X125694285Y-75852857D01*
X125551428Y-75924285D01*
X125480000Y-75995714D01*
X125408571Y-76138571D01*
X125408571Y-76352857D01*
X125480000Y-76495714D01*
X125551428Y-76567142D01*
X125694285Y-76638571D01*
X126122857Y-76638571D01*
X126265714Y-76567142D01*
X126337142Y-76495714D01*
X126408571Y-76352857D01*
X126408571Y-76138571D01*
X126408571Y-77924285D02*
X124908571Y-77924285D01*
X126337142Y-77924285D02*
X126408571Y-77781428D01*
X126408571Y-77495714D01*
X126337142Y-77352857D01*
X126265714Y-77281428D01*
X126122857Y-77210000D01*
X125694285Y-77210000D01*
X125551428Y-77281428D01*
X125480000Y-77352857D01*
X125408571Y-77495714D01*
X125408571Y-77781428D01*
X125480000Y-77924285D01*
X126408571Y-78852857D02*
X126337142Y-78710000D01*
X126265714Y-78638571D01*
X126122857Y-78567142D01*
X125694285Y-78567142D01*
X125551428Y-78638571D01*
X125480000Y-78710000D01*
X125408571Y-78852857D01*
X125408571Y-79067142D01*
X125480000Y-79210000D01*
X125551428Y-79281428D01*
X125694285Y-79352857D01*
X126122857Y-79352857D01*
X126265714Y-79281428D01*
X126337142Y-79210000D01*
X126408571Y-79067142D01*
X126408571Y-78852857D01*
X126408571Y-79995714D02*
X125408571Y-79995714D01*
X125694285Y-79995714D02*
X125551428Y-80067142D01*
X125480000Y-80138571D01*
X125408571Y-80281428D01*
X125408571Y-80424285D01*
X126337142Y-81495714D02*
X126408571Y-81352857D01*
X126408571Y-81067142D01*
X126337142Y-80924285D01*
X126194285Y-80852857D01*
X125622857Y-80852857D01*
X125480000Y-80924285D01*
X125408571Y-81067142D01*
X125408571Y-81352857D01*
X125480000Y-81495714D01*
X125622857Y-81567142D01*
X125765714Y-81567142D01*
X125908571Y-80852857D01*
X126265714Y-84209999D02*
X126337142Y-84138571D01*
X126408571Y-83924285D01*
X126408571Y-83781428D01*
X126337142Y-83567142D01*
X126194285Y-83424285D01*
X126051428Y-83352857D01*
X125765714Y-83281428D01*
X125551428Y-83281428D01*
X125265714Y-83352857D01*
X125122857Y-83424285D01*
X124980000Y-83567142D01*
X124908571Y-83781428D01*
X124908571Y-83924285D01*
X124980000Y-84138571D01*
X125051428Y-84209999D01*
X126408571Y-85638571D02*
X126408571Y-84781428D01*
X126408571Y-85209999D02*
X124908571Y-85209999D01*
X125122857Y-85067142D01*
X125265714Y-84924285D01*
X125337142Y-84781428D01*
X124908571Y-86924285D02*
X124908571Y-86638571D01*
X124980000Y-86495714D01*
X125051428Y-86424285D01*
X125265714Y-86281428D01*
X125551428Y-86210000D01*
X126122857Y-86210000D01*
X126265714Y-86281428D01*
X126337142Y-86352857D01*
X126408571Y-86495714D01*
X126408571Y-86781428D01*
X126337142Y-86924285D01*
X126265714Y-86995714D01*
X126122857Y-87067142D01*
X125765714Y-87067142D01*
X125622857Y-86995714D01*
X125551428Y-86924285D01*
X125480000Y-86781428D01*
X125480000Y-86495714D01*
X125551428Y-86352857D01*
X125622857Y-86281428D01*
X125765714Y-86210000D01*
X125837142Y-88852857D02*
X125837142Y-89995714D01*
X126408571Y-89424285D02*
X125265714Y-89424285D01*
X126408571Y-91852857D02*
X124908571Y-91852857D01*
X124908571Y-92424285D01*
X124980000Y-92567142D01*
X125051428Y-92638571D01*
X125194285Y-92709999D01*
X125408571Y-92709999D01*
X125551428Y-92638571D01*
X125622857Y-92567142D01*
X125694285Y-92424285D01*
X125694285Y-91852857D01*
X126408571Y-93567142D02*
X126337142Y-93424285D01*
X126194285Y-93352857D01*
X124908571Y-93352857D01*
X125408571Y-94781428D02*
X126408571Y-94781428D01*
X125408571Y-94138571D02*
X126194285Y-94138571D01*
X126337142Y-94210000D01*
X126408571Y-94352857D01*
X126408571Y-94567142D01*
X126337142Y-94710000D01*
X126265714Y-94781428D01*
X126337142Y-95424285D02*
X126408571Y-95567142D01*
X126408571Y-95852857D01*
X126337142Y-95995714D01*
X126194285Y-96067142D01*
X126122857Y-96067142D01*
X125980000Y-95995714D01*
X125908571Y-95852857D01*
X125908571Y-95638571D01*
X125837142Y-95495714D01*
X125694285Y-95424285D01*
X125622857Y-95424285D01*
X125480000Y-95495714D01*
X125408571Y-95638571D01*
X125408571Y-95852857D01*
X125480000Y-95995714D01*
X124837142Y-97781428D02*
X126765714Y-96495714D01*
X125408571Y-98924285D02*
X126408571Y-98924285D01*
X124837142Y-98567142D02*
X125908571Y-98210000D01*
X125908571Y-99138571D01*
X126408571Y-101709999D02*
X125694285Y-101209999D01*
X126408571Y-100852857D02*
X124908571Y-100852857D01*
X124908571Y-101424285D01*
X124980000Y-101567142D01*
X125051428Y-101638571D01*
X125194285Y-101709999D01*
X125408571Y-101709999D01*
X125551428Y-101638571D01*
X125622857Y-101567142D01*
X125694285Y-101424285D01*
X125694285Y-100852857D01*
X124908571Y-102638571D02*
X124908571Y-102924285D01*
X124980000Y-103067142D01*
X125122857Y-103209999D01*
X125408571Y-103281428D01*
X125908571Y-103281428D01*
X126194285Y-103209999D01*
X126337142Y-103067142D01*
X126408571Y-102924285D01*
X126408571Y-102638571D01*
X126337142Y-102495714D01*
X126194285Y-102352857D01*
X125908571Y-102281428D01*
X125408571Y-102281428D01*
X125122857Y-102352857D01*
X124980000Y-102495714D01*
X124908571Y-102638571D01*
X126408571Y-103924285D02*
X124908571Y-103924285D01*
X125980000Y-104424285D01*
X124908571Y-104924285D01*
X126408571Y-104924285D01*
X126265714Y-107638571D02*
X126337142Y-107567142D01*
X126408571Y-107352857D01*
X126408571Y-107209999D01*
X126337142Y-106995714D01*
X126194285Y-106852857D01*
X126051428Y-106781428D01*
X125765714Y-106709999D01*
X125551428Y-106709999D01*
X125265714Y-106781428D01*
X125122857Y-106852857D01*
X124980000Y-106995714D01*
X124908571Y-107209999D01*
X124908571Y-107352857D01*
X124980000Y-107567142D01*
X125051428Y-107638571D01*
X126408571Y-108924285D02*
X125622857Y-108924285D01*
X125480000Y-108852857D01*
X125408571Y-108709999D01*
X125408571Y-108424285D01*
X125480000Y-108281428D01*
X126337142Y-108924285D02*
X126408571Y-108781428D01*
X126408571Y-108424285D01*
X126337142Y-108281428D01*
X126194285Y-108209999D01*
X126051428Y-108209999D01*
X125908571Y-108281428D01*
X125837142Y-108424285D01*
X125837142Y-108781428D01*
X125765714Y-108924285D01*
X126408571Y-109638571D02*
X125408571Y-109638571D01*
X125694285Y-109638571D02*
X125551428Y-109709999D01*
X125480000Y-109781428D01*
X125408571Y-109924285D01*
X125408571Y-110067142D01*
X125408571Y-110352857D02*
X125408571Y-110924285D01*
X124908571Y-110567142D02*
X126194285Y-110567142D01*
X126337142Y-110638571D01*
X126408571Y-110781428D01*
X126408571Y-110924285D01*
X126408571Y-111424285D02*
X125408571Y-111424285D01*
X125694285Y-111424285D02*
X125551428Y-111495714D01*
X125480000Y-111567142D01*
X125408571Y-111709999D01*
X125408571Y-111852857D01*
X126408571Y-112352857D02*
X125408571Y-112352857D01*
X124908571Y-112352857D02*
X124980000Y-112281428D01*
X125051428Y-112352857D01*
X124980000Y-112424285D01*
X124908571Y-112352857D01*
X125051428Y-112352857D01*
X126408571Y-113709999D02*
X124908571Y-113709999D01*
X126337142Y-113709999D02*
X126408571Y-113567142D01*
X126408571Y-113281428D01*
X126337142Y-113138571D01*
X126265714Y-113067142D01*
X126122857Y-112995714D01*
X125694285Y-112995714D01*
X125551428Y-113067142D01*
X125480000Y-113138571D01*
X125408571Y-113281428D01*
X125408571Y-113567142D01*
X125480000Y-113709999D01*
X125408571Y-115067142D02*
X126622857Y-115067142D01*
X126765714Y-114995714D01*
X126837142Y-114924285D01*
X126908571Y-114781428D01*
X126908571Y-114567142D01*
X126837142Y-114424285D01*
X126337142Y-115067142D02*
X126408571Y-114924285D01*
X126408571Y-114638571D01*
X126337142Y-114495714D01*
X126265714Y-114424285D01*
X126122857Y-114352857D01*
X125694285Y-114352857D01*
X125551428Y-114424285D01*
X125480000Y-114495714D01*
X125408571Y-114638571D01*
X125408571Y-114924285D01*
X125480000Y-115067142D01*
X126337142Y-116352857D02*
X126408571Y-116209999D01*
X126408571Y-115924285D01*
X126337142Y-115781428D01*
X126194285Y-115709999D01*
X125622857Y-115709999D01*
X125480000Y-115781428D01*
X125408571Y-115924285D01*
X125408571Y-116209999D01*
X125480000Y-116352857D01*
X125622857Y-116424285D01*
X125765714Y-116424285D01*
X125908571Y-115709999D01*
X169639619Y-68265476D02*
X169592000Y-68313095D01*
X169544380Y-68408333D01*
X169544380Y-68646428D01*
X169592000Y-68741666D01*
X169639619Y-68789285D01*
X169734857Y-68836904D01*
X169830095Y-68836904D01*
X169972952Y-68789285D01*
X170544380Y-68217857D01*
X170544380Y-68836904D01*
X169544380Y-69170238D02*
X169544380Y-69836904D01*
X170544380Y-69408333D01*
X170544380Y-70741666D02*
X170544380Y-70170238D01*
X170544380Y-70455952D02*
X169544380Y-70455952D01*
X169687238Y-70360714D01*
X169782476Y-70265476D01*
X169830095Y-70170238D01*
X169639619Y-71122619D02*
X169592000Y-71170238D01*
X169544380Y-71265476D01*
X169544380Y-71503571D01*
X169592000Y-71598809D01*
X169639619Y-71646428D01*
X169734857Y-71694047D01*
X169830095Y-71694047D01*
X169972952Y-71646428D01*
X170544380Y-71075000D01*
X170544380Y-71694047D01*
X169972952Y-72265476D02*
X169925333Y-72170238D01*
X169877714Y-72122619D01*
X169782476Y-72075000D01*
X169734857Y-72075000D01*
X169639619Y-72122619D01*
X169592000Y-72170238D01*
X169544380Y-72265476D01*
X169544380Y-72455952D01*
X169592000Y-72551190D01*
X169639619Y-72598809D01*
X169734857Y-72646428D01*
X169782476Y-72646428D01*
X169877714Y-72598809D01*
X169925333Y-72551190D01*
X169972952Y-72455952D01*
X169972952Y-72265476D01*
X170020571Y-72170238D01*
X170068190Y-72122619D01*
X170163428Y-72075000D01*
X170353904Y-72075000D01*
X170449142Y-72122619D01*
X170496761Y-72170238D01*
X170544380Y-72265476D01*
X170544380Y-72455952D01*
X170496761Y-72551190D01*
X170449142Y-72598809D01*
X170353904Y-72646428D01*
X170163428Y-72646428D01*
X170068190Y-72598809D01*
X170020571Y-72551190D01*
X169972952Y-72455952D01*
X170544380Y-73836904D02*
X169544380Y-73836904D01*
X169544380Y-74217857D01*
X169592000Y-74313095D01*
X169639619Y-74360714D01*
X169734857Y-74408333D01*
X169877714Y-74408333D01*
X169972952Y-74360714D01*
X170020571Y-74313095D01*
X170068190Y-74217857D01*
X170068190Y-73836904D01*
X170544380Y-74979761D02*
X170496761Y-74884523D01*
X170449142Y-74836904D01*
X170353904Y-74789285D01*
X170068190Y-74789285D01*
X169972952Y-74836904D01*
X169925333Y-74884523D01*
X169877714Y-74979761D01*
X169877714Y-75122619D01*
X169925333Y-75217857D01*
X169972952Y-75265476D01*
X170068190Y-75313095D01*
X170353904Y-75313095D01*
X170449142Y-75265476D01*
X170496761Y-75217857D01*
X170544380Y-75122619D01*
X170544380Y-74979761D01*
X169877714Y-75741666D02*
X170877714Y-75741666D01*
X169925333Y-75741666D02*
X169877714Y-75836904D01*
X169877714Y-76027380D01*
X169925333Y-76122619D01*
X169972952Y-76170238D01*
X170068190Y-76217857D01*
X170353904Y-76217857D01*
X170449142Y-76170238D01*
X170496761Y-76122619D01*
X170544380Y-76027380D01*
X170544380Y-75836904D01*
X170496761Y-75741666D01*
X169877714Y-77075000D02*
X170544380Y-77075000D01*
X169877714Y-76646428D02*
X170401523Y-76646428D01*
X170496761Y-76694047D01*
X170544380Y-76789285D01*
X170544380Y-76932142D01*
X170496761Y-77027380D01*
X170449142Y-77075000D01*
X170544380Y-77694047D02*
X170496761Y-77598809D01*
X170401523Y-77551190D01*
X169544380Y-77551190D01*
X170544380Y-78503571D02*
X170020571Y-78503571D01*
X169925333Y-78455952D01*
X169877714Y-78360714D01*
X169877714Y-78170238D01*
X169925333Y-78075000D01*
X170496761Y-78503571D02*
X170544380Y-78408333D01*
X170544380Y-78170238D01*
X170496761Y-78075000D01*
X170401523Y-78027380D01*
X170306285Y-78027380D01*
X170211047Y-78075000D01*
X170163428Y-78170238D01*
X170163428Y-78408333D01*
X170115809Y-78503571D01*
X169877714Y-78836904D02*
X169877714Y-79217857D01*
X169544380Y-78979761D02*
X170401523Y-78979761D01*
X170496761Y-79027380D01*
X170544380Y-79122619D01*
X170544380Y-79217857D01*
X170496761Y-79932142D02*
X170544380Y-79836904D01*
X170544380Y-79646428D01*
X170496761Y-79551190D01*
X170401523Y-79503571D01*
X170020571Y-79503571D01*
X169925333Y-79551190D01*
X169877714Y-79646428D01*
X169877714Y-79836904D01*
X169925333Y-79932142D01*
X170020571Y-79979761D01*
X170115809Y-79979761D01*
X170211047Y-79503571D01*
X170544380Y-81741666D02*
X170068190Y-81408333D01*
X170544380Y-81170238D02*
X169544380Y-81170238D01*
X169544380Y-81551190D01*
X169592000Y-81646428D01*
X169639619Y-81694047D01*
X169734857Y-81741666D01*
X169877714Y-81741666D01*
X169972952Y-81694047D01*
X170020571Y-81646428D01*
X170068190Y-81551190D01*
X170068190Y-81170238D01*
X170544380Y-82694047D02*
X170544380Y-82122619D01*
X170544380Y-82408333D02*
X169544380Y-82408333D01*
X169687238Y-82313095D01*
X169782476Y-82217857D01*
X169830095Y-82122619D01*
X169496761Y-83836904D02*
X170782476Y-82979761D01*
X170544380Y-84741666D02*
X170068190Y-84408333D01*
X170544380Y-84170238D02*
X169544380Y-84170238D01*
X169544380Y-84551190D01*
X169592000Y-84646428D01*
X169639619Y-84694047D01*
X169734857Y-84741666D01*
X169877714Y-84741666D01*
X169972952Y-84694047D01*
X170020571Y-84646428D01*
X170068190Y-84551190D01*
X170068190Y-84170238D01*
X169544380Y-85075000D02*
X169544380Y-85694047D01*
X169925333Y-85360714D01*
X169925333Y-85503571D01*
X169972952Y-85598809D01*
X170020571Y-85646428D01*
X170115809Y-85694047D01*
X170353904Y-85694047D01*
X170449142Y-85646428D01*
X170496761Y-85598809D01*
X170544380Y-85503571D01*
X170544380Y-85217857D01*
X170496761Y-85122619D01*
X170449142Y-85075000D01*
X170925333Y-87170238D02*
X170877714Y-87122619D01*
X170734857Y-87027380D01*
X170639619Y-86979761D01*
X170496761Y-86932142D01*
X170258666Y-86884523D01*
X170068190Y-86884523D01*
X169830095Y-86932142D01*
X169687238Y-86979761D01*
X169592000Y-87027380D01*
X169449142Y-87122619D01*
X169401523Y-87170238D01*
X170544380Y-88075000D02*
X170544380Y-87503571D01*
X170544380Y-87789285D02*
X169544380Y-87789285D01*
X169687238Y-87694047D01*
X169782476Y-87598809D01*
X169830095Y-87503571D01*
X169544380Y-88694047D02*
X169544380Y-88789285D01*
X169592000Y-88884523D01*
X169639619Y-88932142D01*
X169734857Y-88979761D01*
X169925333Y-89027380D01*
X170163428Y-89027380D01*
X170353904Y-88979761D01*
X170449142Y-88932142D01*
X170496761Y-88884523D01*
X170544380Y-88789285D01*
X170544380Y-88694047D01*
X170496761Y-88598809D01*
X170449142Y-88551190D01*
X170353904Y-88503571D01*
X170163428Y-88455952D01*
X169925333Y-88455952D01*
X169734857Y-88503571D01*
X169639619Y-88551190D01*
X169592000Y-88598809D01*
X169544380Y-88694047D01*
X170544380Y-89455952D02*
X169544380Y-89455952D01*
X170163428Y-89551190D02*
X170544380Y-89836904D01*
X169877714Y-89836904D02*
X170258666Y-89455952D01*
X170544380Y-90217857D02*
X170544380Y-90455952D01*
X170353904Y-90455952D01*
X170306285Y-90360714D01*
X170211047Y-90265476D01*
X170068190Y-90217857D01*
X169830095Y-90217857D01*
X169687238Y-90265476D01*
X169592000Y-90360714D01*
X169544380Y-90503571D01*
X169544380Y-90694047D01*
X169592000Y-90836904D01*
X169687238Y-90932142D01*
X169830095Y-90979761D01*
X170068190Y-90979761D01*
X170211047Y-90932142D01*
X170306285Y-90836904D01*
X170353904Y-90741666D01*
X170544380Y-90741666D01*
X170544380Y-90979761D01*
X170925333Y-91313095D02*
X170877714Y-91360714D01*
X170734857Y-91455952D01*
X170639619Y-91503571D01*
X170496761Y-91551190D01*
X170258666Y-91598809D01*
X170068190Y-91598809D01*
X169830095Y-91551190D01*
X169687238Y-91503571D01*
X169592000Y-91455952D01*
X169449142Y-91360714D01*
X169401523Y-91313095D01*
X171339619Y-68265476D02*
X171292000Y-68313095D01*
X171244380Y-68408333D01*
X171244380Y-68646428D01*
X171292000Y-68741666D01*
X171339619Y-68789285D01*
X171434857Y-68836904D01*
X171530095Y-68836904D01*
X171672952Y-68789285D01*
X172244380Y-68217857D01*
X172244380Y-68836904D01*
X171244380Y-69170238D02*
X171244380Y-69836904D01*
X172244380Y-69408333D01*
X171339619Y-70170238D02*
X171292000Y-70217857D01*
X171244380Y-70313095D01*
X171244380Y-70551190D01*
X171292000Y-70646428D01*
X171339619Y-70694047D01*
X171434857Y-70741666D01*
X171530095Y-70741666D01*
X171672952Y-70694047D01*
X172244380Y-70122619D01*
X172244380Y-70741666D01*
X171244380Y-71646428D02*
X171244380Y-71170238D01*
X171720571Y-71122619D01*
X171672952Y-71170238D01*
X171625333Y-71265476D01*
X171625333Y-71503571D01*
X171672952Y-71598809D01*
X171720571Y-71646428D01*
X171815809Y-71694047D01*
X172053904Y-71694047D01*
X172149142Y-71646428D01*
X172196761Y-71598809D01*
X172244380Y-71503571D01*
X172244380Y-71265476D01*
X172196761Y-71170238D01*
X172149142Y-71122619D01*
X171244380Y-72551190D02*
X171244380Y-72360714D01*
X171292000Y-72265476D01*
X171339619Y-72217857D01*
X171482476Y-72122619D01*
X171672952Y-72075000D01*
X172053904Y-72075000D01*
X172149142Y-72122619D01*
X172196761Y-72170238D01*
X172244380Y-72265476D01*
X172244380Y-72455952D01*
X172196761Y-72551190D01*
X172149142Y-72598809D01*
X172053904Y-72646428D01*
X171815809Y-72646428D01*
X171720571Y-72598809D01*
X171672952Y-72551190D01*
X171625333Y-72455952D01*
X171625333Y-72265476D01*
X171672952Y-72170238D01*
X171720571Y-72122619D01*
X171815809Y-72075000D01*
X172196761Y-73789285D02*
X172244380Y-73932142D01*
X172244380Y-74170238D01*
X172196761Y-74265476D01*
X172149142Y-74313095D01*
X172053904Y-74360714D01*
X171958666Y-74360714D01*
X171863428Y-74313095D01*
X171815809Y-74265476D01*
X171768190Y-74170238D01*
X171720571Y-73979761D01*
X171672952Y-73884523D01*
X171625333Y-73836904D01*
X171530095Y-73789285D01*
X171434857Y-73789285D01*
X171339619Y-73836904D01*
X171292000Y-73884523D01*
X171244380Y-73979761D01*
X171244380Y-74217857D01*
X171292000Y-74360714D01*
X171244380Y-74694047D02*
X172244380Y-74932142D01*
X171530095Y-75122619D01*
X172244380Y-75313095D01*
X171244380Y-75551190D01*
X172244380Y-76455952D02*
X172244380Y-75884523D01*
X172244380Y-76170238D02*
X171244380Y-76170238D01*
X171387238Y-76075000D01*
X171482476Y-75979761D01*
X171530095Y-75884523D01*
X171196761Y-77598809D02*
X172482476Y-76741666D01*
X171244380Y-77836904D02*
X171244380Y-78455952D01*
X171625333Y-78122619D01*
X171625333Y-78265476D01*
X171672952Y-78360714D01*
X171720571Y-78408333D01*
X171815809Y-78455952D01*
X172053904Y-78455952D01*
X172149142Y-78408333D01*
X172196761Y-78360714D01*
X172244380Y-78265476D01*
X172244380Y-77979761D01*
X172196761Y-77884523D01*
X172149142Y-77836904D01*
X172196761Y-79598809D02*
X172244380Y-79694047D01*
X172244380Y-79884523D01*
X172196761Y-79979761D01*
X172101523Y-80027380D01*
X172053904Y-80027380D01*
X171958666Y-79979761D01*
X171911047Y-79884523D01*
X171911047Y-79741666D01*
X171863428Y-79646428D01*
X171768190Y-79598809D01*
X171720571Y-79598809D01*
X171625333Y-79646428D01*
X171577714Y-79741666D01*
X171577714Y-79884523D01*
X171625333Y-79979761D01*
X172196761Y-80836904D02*
X172244380Y-80741666D01*
X172244380Y-80551190D01*
X172196761Y-80455952D01*
X172101523Y-80408333D01*
X171720571Y-80408333D01*
X171625333Y-80455952D01*
X171577714Y-80551190D01*
X171577714Y-80741666D01*
X171625333Y-80836904D01*
X171720571Y-80884523D01*
X171815809Y-80884523D01*
X171911047Y-80408333D01*
X172244380Y-81455952D02*
X172196761Y-81360714D01*
X172101523Y-81313095D01*
X171244380Y-81313095D01*
X172196761Y-82217857D02*
X172244380Y-82122619D01*
X172244380Y-81932142D01*
X172196761Y-81836904D01*
X172101523Y-81789285D01*
X171720571Y-81789285D01*
X171625333Y-81836904D01*
X171577714Y-81932142D01*
X171577714Y-82122619D01*
X171625333Y-82217857D01*
X171720571Y-82265476D01*
X171815809Y-82265476D01*
X171911047Y-81789285D01*
X172196761Y-83122619D02*
X172244380Y-83027380D01*
X172244380Y-82836904D01*
X172196761Y-82741666D01*
X172149142Y-82694047D01*
X172053904Y-82646428D01*
X171768190Y-82646428D01*
X171672952Y-82694047D01*
X171625333Y-82741666D01*
X171577714Y-82836904D01*
X171577714Y-83027380D01*
X171625333Y-83122619D01*
X171577714Y-83408333D02*
X171577714Y-83789285D01*
X171244380Y-83551190D02*
X172101523Y-83551190D01*
X172196761Y-83598809D01*
X172244380Y-83694047D01*
X172244380Y-83789285D01*
X172196761Y-84075000D02*
X172244380Y-84170238D01*
X172244380Y-84360714D01*
X172196761Y-84455952D01*
X172101523Y-84503571D01*
X172053904Y-84503571D01*
X171958666Y-84455952D01*
X171911047Y-84360714D01*
X171911047Y-84217857D01*
X171863428Y-84122619D01*
X171768190Y-84075000D01*
X171720571Y-84075000D01*
X171625333Y-84122619D01*
X171577714Y-84217857D01*
X171577714Y-84360714D01*
X171625333Y-84455952D01*
X154851380Y-65677809D02*
X155565666Y-65677809D01*
X155708523Y-65630190D01*
X155803761Y-65534952D01*
X155851380Y-65392095D01*
X155851380Y-65296857D01*
X155851380Y-66154000D02*
X154851380Y-66154000D01*
X154851380Y-66534952D01*
X154899000Y-66630190D01*
X154946619Y-66677809D01*
X155041857Y-66725428D01*
X155184714Y-66725428D01*
X155279952Y-66677809D01*
X155327571Y-66630190D01*
X155375190Y-66534952D01*
X155375190Y-66154000D01*
X155851380Y-67677809D02*
X155851380Y-67106380D01*
X155851380Y-67392095D02*
X154851380Y-67392095D01*
X154994238Y-67296857D01*
X155089476Y-67201619D01*
X155137095Y-67106380D01*
X154803761Y-68820666D02*
X156089476Y-67963523D01*
X155851380Y-69725428D02*
X155375190Y-69392095D01*
X155851380Y-69154000D02*
X154851380Y-69154000D01*
X154851380Y-69534952D01*
X154899000Y-69630190D01*
X154946619Y-69677809D01*
X155041857Y-69725428D01*
X155184714Y-69725428D01*
X155279952Y-69677809D01*
X155327571Y-69630190D01*
X155375190Y-69534952D01*
X155375190Y-69154000D01*
X155851380Y-70677809D02*
X155851380Y-70106380D01*
X155851380Y-70392095D02*
X154851380Y-70392095D01*
X154994238Y-70296857D01*
X155089476Y-70201619D01*
X155137095Y-70106380D01*
X154803761Y-71820666D02*
X156089476Y-70963523D01*
X155803761Y-72106380D02*
X155851380Y-72249238D01*
X155851380Y-72487333D01*
X155803761Y-72582571D01*
X155756142Y-72630190D01*
X155660904Y-72677809D01*
X155565666Y-72677809D01*
X155470428Y-72630190D01*
X155422809Y-72582571D01*
X155375190Y-72487333D01*
X155327571Y-72296857D01*
X155279952Y-72201619D01*
X155232333Y-72154000D01*
X155137095Y-72106380D01*
X155041857Y-72106380D01*
X154946619Y-72154000D01*
X154899000Y-72201619D01*
X154851380Y-72296857D01*
X154851380Y-72534952D01*
X154899000Y-72677809D01*
X154851380Y-73011142D02*
X155851380Y-73249238D01*
X155137095Y-73439714D01*
X155851380Y-73630190D01*
X154851380Y-73868285D01*
X155851380Y-74773047D02*
X155851380Y-74201619D01*
X155851380Y-74487333D02*
X154851380Y-74487333D01*
X154994238Y-74392095D01*
X155089476Y-74296857D01*
X155137095Y-74201619D01*
X155470428Y-75201619D02*
X155470428Y-75963523D01*
X155184714Y-76868285D02*
X155851380Y-76868285D01*
X154803761Y-76630190D02*
X155518047Y-76392095D01*
X155518047Y-77011142D01*
X154851380Y-78154000D02*
X155660904Y-78154000D01*
X155756142Y-78201619D01*
X155803761Y-78249238D01*
X155851380Y-78344476D01*
X155851380Y-78534952D01*
X155803761Y-78630190D01*
X155756142Y-78677809D01*
X155660904Y-78725428D01*
X154851380Y-78725428D01*
X155851380Y-79725428D02*
X155851380Y-79154000D01*
X155851380Y-79439714D02*
X154851380Y-79439714D01*
X154994238Y-79344476D01*
X155089476Y-79249238D01*
X155137095Y-79154000D01*
X155851380Y-80915904D02*
X154851380Y-80915904D01*
X154851380Y-81296857D01*
X154899000Y-81392095D01*
X154946619Y-81439714D01*
X155041857Y-81487333D01*
X155184714Y-81487333D01*
X155279952Y-81439714D01*
X155327571Y-81392095D01*
X155375190Y-81296857D01*
X155375190Y-80915904D01*
X155851380Y-81915904D02*
X155184714Y-81915904D01*
X154851380Y-81915904D02*
X154899000Y-81868285D01*
X154946619Y-81915904D01*
X154899000Y-81963523D01*
X154851380Y-81915904D01*
X154946619Y-81915904D01*
X155184714Y-82392095D02*
X155851380Y-82392095D01*
X155279952Y-82392095D02*
X155232333Y-82439714D01*
X155184714Y-82534952D01*
X155184714Y-82677809D01*
X155232333Y-82773047D01*
X155327571Y-82820666D01*
X155851380Y-82820666D01*
X154946619Y-84011142D02*
X154899000Y-84058761D01*
X154851380Y-84154000D01*
X154851380Y-84392095D01*
X154899000Y-84487333D01*
X154946619Y-84534952D01*
X155041857Y-84582571D01*
X155137095Y-84582571D01*
X155279952Y-84534952D01*
X155851380Y-83963523D01*
X155851380Y-84582571D01*
X154851380Y-84915904D02*
X154851380Y-85582571D01*
X155851380Y-85154000D01*
X156232333Y-87011142D02*
X156184714Y-86963523D01*
X156041857Y-86868285D01*
X155946619Y-86820666D01*
X155803761Y-86773047D01*
X155565666Y-86725428D01*
X155375190Y-86725428D01*
X155137095Y-86773047D01*
X154994238Y-86820666D01*
X154899000Y-86868285D01*
X154756142Y-86963523D01*
X154708523Y-87011142D01*
X155565666Y-87344476D02*
X155565666Y-87820666D01*
X155851380Y-87249238D02*
X154851380Y-87582571D01*
X155851380Y-87915904D01*
X155851380Y-88773047D02*
X155851380Y-88201619D01*
X155851380Y-88487333D02*
X154851380Y-88487333D01*
X154994238Y-88392095D01*
X155089476Y-88296857D01*
X155137095Y-88201619D01*
X155184714Y-89630190D02*
X155851380Y-89630190D01*
X154803761Y-89392095D02*
X155518047Y-89154000D01*
X155518047Y-89773047D01*
X156232333Y-90058761D02*
X156184714Y-90106380D01*
X156041857Y-90201619D01*
X155946619Y-90249238D01*
X155803761Y-90296857D01*
X155565666Y-90344476D01*
X155375190Y-90344476D01*
X155137095Y-90296857D01*
X154994238Y-90249238D01*
X154899000Y-90201619D01*
X154756142Y-90106380D01*
X154708523Y-90058761D01*
X156551380Y-65677809D02*
X157265666Y-65677809D01*
X157408523Y-65630190D01*
X157503761Y-65534952D01*
X157551380Y-65392095D01*
X157551380Y-65296857D01*
X157551380Y-66154000D02*
X156551380Y-66154000D01*
X156551380Y-66534952D01*
X156599000Y-66630190D01*
X156646619Y-66677809D01*
X156741857Y-66725428D01*
X156884714Y-66725428D01*
X156979952Y-66677809D01*
X157027571Y-66630190D01*
X157075190Y-66534952D01*
X157075190Y-66154000D01*
X156646619Y-67106380D02*
X156599000Y-67154000D01*
X156551380Y-67249238D01*
X156551380Y-67487333D01*
X156599000Y-67582571D01*
X156646619Y-67630190D01*
X156741857Y-67677809D01*
X156837095Y-67677809D01*
X156979952Y-67630190D01*
X157551380Y-67058761D01*
X157551380Y-67677809D01*
X156503761Y-68820666D02*
X157789476Y-67963523D01*
X157551380Y-69725428D02*
X157075190Y-69392095D01*
X157551380Y-69154000D02*
X156551380Y-69154000D01*
X156551380Y-69534952D01*
X156599000Y-69630190D01*
X156646619Y-69677809D01*
X156741857Y-69725428D01*
X156884714Y-69725428D01*
X156979952Y-69677809D01*
X157027571Y-69630190D01*
X157075190Y-69534952D01*
X157075190Y-69154000D01*
X156646619Y-70106380D02*
X156599000Y-70154000D01*
X156551380Y-70249238D01*
X156551380Y-70487333D01*
X156599000Y-70582571D01*
X156646619Y-70630190D01*
X156741857Y-70677809D01*
X156837095Y-70677809D01*
X156979952Y-70630190D01*
X157551380Y-70058761D01*
X157551380Y-70677809D01*
X156503761Y-71820666D02*
X157789476Y-70963523D01*
X157503761Y-72106380D02*
X157551380Y-72249238D01*
X157551380Y-72487333D01*
X157503761Y-72582571D01*
X157456142Y-72630190D01*
X157360904Y-72677809D01*
X157265666Y-72677809D01*
X157170428Y-72630190D01*
X157122809Y-72582571D01*
X157075190Y-72487333D01*
X157027571Y-72296857D01*
X156979952Y-72201619D01*
X156932333Y-72154000D01*
X156837095Y-72106380D01*
X156741857Y-72106380D01*
X156646619Y-72154000D01*
X156599000Y-72201619D01*
X156551380Y-72296857D01*
X156551380Y-72534952D01*
X156599000Y-72677809D01*
X156551380Y-73011142D02*
X157551380Y-73249238D01*
X156837095Y-73439714D01*
X157551380Y-73630190D01*
X156551380Y-73868285D01*
X157551380Y-74773047D02*
X157551380Y-74201619D01*
X157551380Y-74487333D02*
X156551380Y-74487333D01*
X156694238Y-74392095D01*
X156789476Y-74296857D01*
X156837095Y-74201619D01*
X157170428Y-75201619D02*
X157170428Y-75963523D01*
X156551380Y-76344476D02*
X156551380Y-76963523D01*
X156932333Y-76630190D01*
X156932333Y-76773047D01*
X156979952Y-76868285D01*
X157027571Y-76915904D01*
X157122809Y-76963523D01*
X157360904Y-76963523D01*
X157456142Y-76915904D01*
X157503761Y-76868285D01*
X157551380Y-76773047D01*
X157551380Y-76487333D01*
X157503761Y-76392095D01*
X157456142Y-76344476D01*
X156551380Y-78154000D02*
X157360904Y-78154000D01*
X157456142Y-78201619D01*
X157503761Y-78249238D01*
X157551380Y-78344476D01*
X157551380Y-78534952D01*
X157503761Y-78630190D01*
X157456142Y-78677809D01*
X157360904Y-78725428D01*
X156551380Y-78725428D01*
X157551380Y-79725428D02*
X157551380Y-79154000D01*
X157551380Y-79439714D02*
X156551380Y-79439714D01*
X156694238Y-79344476D01*
X156789476Y-79249238D01*
X156837095Y-79154000D01*
X157551380Y-80915904D02*
X156551380Y-80915904D01*
X156551380Y-81296857D01*
X156599000Y-81392095D01*
X156646619Y-81439714D01*
X156741857Y-81487333D01*
X156884714Y-81487333D01*
X156979952Y-81439714D01*
X157027571Y-81392095D01*
X157075190Y-81296857D01*
X157075190Y-80915904D01*
X157551380Y-81915904D02*
X156884714Y-81915904D01*
X156551380Y-81915904D02*
X156599000Y-81868285D01*
X156646619Y-81915904D01*
X156599000Y-81963523D01*
X156551380Y-81915904D01*
X156646619Y-81915904D01*
X156884714Y-82392095D02*
X157551380Y-82392095D01*
X156979952Y-82392095D02*
X156932333Y-82439714D01*
X156884714Y-82534952D01*
X156884714Y-82677809D01*
X156932333Y-82773047D01*
X157027571Y-82820666D01*
X157551380Y-82820666D01*
X157551380Y-84582571D02*
X157551380Y-84011142D01*
X157551380Y-84296857D02*
X156551380Y-84296857D01*
X156694238Y-84201619D01*
X156789476Y-84106380D01*
X156837095Y-84011142D01*
X157932333Y-86058761D02*
X157884714Y-86011142D01*
X157741857Y-85915904D01*
X157646619Y-85868285D01*
X157503761Y-85820666D01*
X157265666Y-85773047D01*
X157075190Y-85773047D01*
X156837095Y-85820666D01*
X156694238Y-85868285D01*
X156599000Y-85915904D01*
X156456142Y-86011142D01*
X156408523Y-86058761D01*
X157265666Y-86392095D02*
X157265666Y-86868285D01*
X157551380Y-86296857D02*
X156551380Y-86630190D01*
X157551380Y-86963523D01*
X157551380Y-87820666D02*
X157551380Y-87249238D01*
X157551380Y-87534952D02*
X156551380Y-87534952D01*
X156694238Y-87439714D01*
X156789476Y-87344476D01*
X156837095Y-87249238D01*
X156551380Y-88725428D02*
X156551380Y-88249238D01*
X157027571Y-88201619D01*
X156979952Y-88249238D01*
X156932333Y-88344476D01*
X156932333Y-88582571D01*
X156979952Y-88677809D01*
X157027571Y-88725428D01*
X157122809Y-88773047D01*
X157360904Y-88773047D01*
X157456142Y-88725428D01*
X157503761Y-88677809D01*
X157551380Y-88582571D01*
X157551380Y-88344476D01*
X157503761Y-88249238D01*
X157456142Y-88201619D01*
X157932333Y-89106380D02*
X157884714Y-89153999D01*
X157741857Y-89249238D01*
X157646619Y-89296857D01*
X157503761Y-89344476D01*
X157265666Y-89392095D01*
X157075190Y-89392095D01*
X156837095Y-89344476D01*
X156694238Y-89296857D01*
X156599000Y-89249238D01*
X156456142Y-89153999D01*
X156408523Y-89106380D01*
X158251380Y-65677809D02*
X158965666Y-65677809D01*
X159108523Y-65630190D01*
X159203761Y-65534952D01*
X159251380Y-65392095D01*
X159251380Y-65296857D01*
X159251380Y-66154000D02*
X158251380Y-66154000D01*
X158251380Y-66534952D01*
X158299000Y-66630190D01*
X158346619Y-66677809D01*
X158441857Y-66725428D01*
X158584714Y-66725428D01*
X158679952Y-66677809D01*
X158727571Y-66630190D01*
X158775190Y-66534952D01*
X158775190Y-66154000D01*
X158251380Y-67058761D02*
X158251380Y-67677809D01*
X158632333Y-67344476D01*
X158632333Y-67487333D01*
X158679952Y-67582571D01*
X158727571Y-67630190D01*
X158822809Y-67677809D01*
X159060904Y-67677809D01*
X159156142Y-67630190D01*
X159203761Y-67582571D01*
X159251380Y-67487333D01*
X159251380Y-67201619D01*
X159203761Y-67106380D01*
X159156142Y-67058761D01*
X158203761Y-68820666D02*
X159489476Y-67963523D01*
X159251380Y-69725428D02*
X158775190Y-69392095D01*
X159251380Y-69154000D02*
X158251380Y-69154000D01*
X158251380Y-69534952D01*
X158299000Y-69630190D01*
X158346619Y-69677809D01*
X158441857Y-69725428D01*
X158584714Y-69725428D01*
X158679952Y-69677809D01*
X158727571Y-69630190D01*
X158775190Y-69534952D01*
X158775190Y-69154000D01*
X158251380Y-70058761D02*
X158251380Y-70677809D01*
X158632333Y-70344476D01*
X158632333Y-70487333D01*
X158679952Y-70582571D01*
X158727571Y-70630190D01*
X158822809Y-70677809D01*
X159060904Y-70677809D01*
X159156142Y-70630190D01*
X159203761Y-70582571D01*
X159251380Y-70487333D01*
X159251380Y-70201619D01*
X159203761Y-70106380D01*
X159156142Y-70058761D01*
X158203761Y-71820666D02*
X159489476Y-70963523D01*
X159203761Y-72106380D02*
X159251380Y-72249238D01*
X159251380Y-72487333D01*
X159203761Y-72582571D01*
X159156142Y-72630190D01*
X159060904Y-72677809D01*
X158965666Y-72677809D01*
X158870428Y-72630190D01*
X158822809Y-72582571D01*
X158775190Y-72487333D01*
X158727571Y-72296857D01*
X158679952Y-72201619D01*
X158632333Y-72154000D01*
X158537095Y-72106380D01*
X158441857Y-72106380D01*
X158346619Y-72154000D01*
X158299000Y-72201619D01*
X158251380Y-72296857D01*
X158251380Y-72534952D01*
X158299000Y-72677809D01*
X158251380Y-73011142D02*
X159251380Y-73249238D01*
X158537095Y-73439714D01*
X159251380Y-73630190D01*
X158251380Y-73868285D01*
X159251380Y-74773047D02*
X159251380Y-74201619D01*
X159251380Y-74487333D02*
X158251380Y-74487333D01*
X158394238Y-74392095D01*
X158489476Y-74296857D01*
X158537095Y-74201619D01*
X158870428Y-75201619D02*
X158870428Y-75963523D01*
X158346619Y-76392095D02*
X158299000Y-76439714D01*
X158251380Y-76534952D01*
X158251380Y-76773047D01*
X158299000Y-76868285D01*
X158346619Y-76915904D01*
X158441857Y-76963523D01*
X158537095Y-76963523D01*
X158679952Y-76915904D01*
X159251380Y-76344476D01*
X159251380Y-76963523D01*
X158251380Y-78154000D02*
X159060904Y-78154000D01*
X159156142Y-78201619D01*
X159203761Y-78249238D01*
X159251380Y-78344476D01*
X159251380Y-78534952D01*
X159203761Y-78630190D01*
X159156142Y-78677809D01*
X159060904Y-78725428D01*
X158251380Y-78725428D01*
X158346619Y-79154000D02*
X158299000Y-79201619D01*
X158251380Y-79296857D01*
X158251380Y-79534952D01*
X158299000Y-79630190D01*
X158346619Y-79677809D01*
X158441857Y-79725428D01*
X158537095Y-79725428D01*
X158679952Y-79677809D01*
X159251380Y-79106380D01*
X159251380Y-79725428D01*
X159251380Y-80915904D02*
X158251380Y-80915904D01*
X158251380Y-81296857D01*
X158299000Y-81392095D01*
X158346619Y-81439714D01*
X158441857Y-81487333D01*
X158584714Y-81487333D01*
X158679952Y-81439714D01*
X158727571Y-81392095D01*
X158775190Y-81296857D01*
X158775190Y-80915904D01*
X159251380Y-81915904D02*
X158584714Y-81915904D01*
X158251380Y-81915904D02*
X158299000Y-81868285D01*
X158346619Y-81915904D01*
X158299000Y-81963523D01*
X158251380Y-81915904D01*
X158346619Y-81915904D01*
X158584714Y-82392095D02*
X159251380Y-82392095D01*
X158679952Y-82392095D02*
X158632333Y-82439714D01*
X158584714Y-82534952D01*
X158584714Y-82677809D01*
X158632333Y-82773047D01*
X158727571Y-82820666D01*
X159251380Y-82820666D01*
X158346619Y-84011142D02*
X158299000Y-84058761D01*
X158251380Y-84154000D01*
X158251380Y-84392095D01*
X158299000Y-84487333D01*
X158346619Y-84534952D01*
X158441857Y-84582571D01*
X158537095Y-84582571D01*
X158679952Y-84534952D01*
X159251380Y-83963523D01*
X159251380Y-84582571D01*
X158251380Y-84915904D02*
X158251380Y-85582571D01*
X159251380Y-85154000D01*
X159632333Y-87011142D02*
X159584714Y-86963523D01*
X159441857Y-86868285D01*
X159346619Y-86820666D01*
X159203761Y-86773047D01*
X158965666Y-86725428D01*
X158775190Y-86725428D01*
X158537095Y-86773047D01*
X158394238Y-86820666D01*
X158299000Y-86868285D01*
X158156142Y-86963523D01*
X158108523Y-87011142D01*
X158965666Y-87344476D02*
X158965666Y-87820666D01*
X159251380Y-87249238D02*
X158251380Y-87582571D01*
X159251380Y-87915904D01*
X159251380Y-88773047D02*
X159251380Y-88201619D01*
X159251380Y-88487333D02*
X158251380Y-88487333D01*
X158394238Y-88392095D01*
X158489476Y-88296857D01*
X158537095Y-88201619D01*
X158584714Y-89630190D02*
X159251380Y-89630190D01*
X158203761Y-89392095D02*
X158918047Y-89154000D01*
X158918047Y-89773047D01*
X159632333Y-90058761D02*
X159584714Y-90106380D01*
X159441857Y-90201619D01*
X159346619Y-90249238D01*
X159203761Y-90296857D01*
X158965666Y-90344476D01*
X158775190Y-90344476D01*
X158537095Y-90296857D01*
X158394238Y-90249238D01*
X158299000Y-90201619D01*
X158156142Y-90106380D01*
X158108523Y-90058761D01*
X159951380Y-65677809D02*
X160665666Y-65677809D01*
X160808523Y-65630190D01*
X160903761Y-65534952D01*
X160951380Y-65392095D01*
X160951380Y-65296857D01*
X160951380Y-66154000D02*
X159951380Y-66154000D01*
X159951380Y-66534952D01*
X159999000Y-66630190D01*
X160046619Y-66677809D01*
X160141857Y-66725428D01*
X160284714Y-66725428D01*
X160379952Y-66677809D01*
X160427571Y-66630190D01*
X160475190Y-66534952D01*
X160475190Y-66154000D01*
X160284714Y-67582571D02*
X160951380Y-67582571D01*
X159903761Y-67344476D02*
X160618047Y-67106380D01*
X160618047Y-67725428D01*
X159903761Y-68820666D02*
X161189476Y-67963523D01*
X160951380Y-69725428D02*
X160475190Y-69392095D01*
X160951380Y-69154000D02*
X159951380Y-69154000D01*
X159951380Y-69534952D01*
X159999000Y-69630190D01*
X160046619Y-69677809D01*
X160141857Y-69725428D01*
X160284714Y-69725428D01*
X160379952Y-69677809D01*
X160427571Y-69630190D01*
X160475190Y-69534952D01*
X160475190Y-69154000D01*
X160284714Y-70582571D02*
X160951380Y-70582571D01*
X159903761Y-70344476D02*
X160618047Y-70106380D01*
X160618047Y-70725428D01*
X159903761Y-71820666D02*
X161189476Y-70963523D01*
X160903761Y-72106380D02*
X160951380Y-72249238D01*
X160951380Y-72487333D01*
X160903761Y-72582571D01*
X160856142Y-72630190D01*
X160760904Y-72677809D01*
X160665666Y-72677809D01*
X160570428Y-72630190D01*
X160522809Y-72582571D01*
X160475190Y-72487333D01*
X160427571Y-72296857D01*
X160379952Y-72201619D01*
X160332333Y-72154000D01*
X160237095Y-72106380D01*
X160141857Y-72106380D01*
X160046619Y-72154000D01*
X159999000Y-72201619D01*
X159951380Y-72296857D01*
X159951380Y-72534952D01*
X159999000Y-72677809D01*
X159951380Y-73011142D02*
X160951380Y-73249238D01*
X160237095Y-73439714D01*
X160951380Y-73630190D01*
X159951380Y-73868285D01*
X160951380Y-74773047D02*
X160951380Y-74201619D01*
X160951380Y-74487333D02*
X159951380Y-74487333D01*
X160094238Y-74392095D01*
X160189476Y-74296857D01*
X160237095Y-74201619D01*
X160570428Y-75201619D02*
X160570428Y-75963523D01*
X160951380Y-76963523D02*
X160951380Y-76392095D01*
X160951380Y-76677809D02*
X159951380Y-76677809D01*
X160094238Y-76582571D01*
X160189476Y-76487333D01*
X160237095Y-76392095D01*
X159951380Y-78154000D02*
X160760904Y-78154000D01*
X160856142Y-78201619D01*
X160903761Y-78249238D01*
X160951380Y-78344476D01*
X160951380Y-78534952D01*
X160903761Y-78630190D01*
X160856142Y-78677809D01*
X160760904Y-78725428D01*
X159951380Y-78725428D01*
X160046619Y-79154000D02*
X159999000Y-79201619D01*
X159951380Y-79296857D01*
X159951380Y-79534952D01*
X159999000Y-79630190D01*
X160046619Y-79677809D01*
X160141857Y-79725428D01*
X160237095Y-79725428D01*
X160379952Y-79677809D01*
X160951380Y-79106380D01*
X160951380Y-79725428D01*
X160951380Y-80915904D02*
X159951380Y-80915904D01*
X159951380Y-81296857D01*
X159999000Y-81392095D01*
X160046619Y-81439714D01*
X160141857Y-81487333D01*
X160284714Y-81487333D01*
X160379952Y-81439714D01*
X160427571Y-81392095D01*
X160475190Y-81296857D01*
X160475190Y-80915904D01*
X160951380Y-81915904D02*
X160284714Y-81915904D01*
X159951380Y-81915904D02*
X159999000Y-81868285D01*
X160046619Y-81915904D01*
X159999000Y-81963523D01*
X159951380Y-81915904D01*
X160046619Y-81915904D01*
X160284714Y-82392095D02*
X160951380Y-82392095D01*
X160379952Y-82392095D02*
X160332333Y-82439714D01*
X160284714Y-82534952D01*
X160284714Y-82677809D01*
X160332333Y-82773047D01*
X160427571Y-82820666D01*
X160951380Y-82820666D01*
X160951380Y-84582571D02*
X160951380Y-84011142D01*
X160951380Y-84296857D02*
X159951380Y-84296857D01*
X160094238Y-84201619D01*
X160189476Y-84106380D01*
X160237095Y-84011142D01*
X161332333Y-86058761D02*
X161284714Y-86011142D01*
X161141857Y-85915904D01*
X161046619Y-85868285D01*
X160903761Y-85820666D01*
X160665666Y-85773047D01*
X160475190Y-85773047D01*
X160237095Y-85820666D01*
X160094238Y-85868285D01*
X159999000Y-85915904D01*
X159856142Y-86011142D01*
X159808523Y-86058761D01*
X160665666Y-86392095D02*
X160665666Y-86868285D01*
X160951380Y-86296857D02*
X159951380Y-86630190D01*
X160951380Y-86963523D01*
X160951380Y-87820666D02*
X160951380Y-87249238D01*
X160951380Y-87534952D02*
X159951380Y-87534952D01*
X160094238Y-87439714D01*
X160189476Y-87344476D01*
X160237095Y-87249238D01*
X159951380Y-88725428D02*
X159951380Y-88249238D01*
X160427571Y-88201619D01*
X160379952Y-88249238D01*
X160332333Y-88344476D01*
X160332333Y-88582571D01*
X160379952Y-88677809D01*
X160427571Y-88725428D01*
X160522809Y-88773047D01*
X160760904Y-88773047D01*
X160856142Y-88725428D01*
X160903761Y-88677809D01*
X160951380Y-88582571D01*
X160951380Y-88344476D01*
X160903761Y-88249238D01*
X160856142Y-88201619D01*
X161332333Y-89106380D02*
X161284714Y-89154000D01*
X161141857Y-89249238D01*
X161046619Y-89296857D01*
X160903761Y-89344476D01*
X160665666Y-89392095D01*
X160475190Y-89392095D01*
X160237095Y-89344476D01*
X160094238Y-89296857D01*
X159999000Y-89249238D01*
X159856142Y-89154000D01*
X159808523Y-89106380D01*
X141013571Y-65820714D02*
X139513571Y-65820714D01*
X141013571Y-66335000D02*
X140227857Y-66335000D01*
X140085000Y-66277857D01*
X140013571Y-66163571D01*
X140013571Y-65992142D01*
X140085000Y-65877857D01*
X140156428Y-65820714D01*
X140013571Y-66735000D02*
X140013571Y-67192142D01*
X139513571Y-66906428D02*
X140799285Y-66906428D01*
X140942142Y-66963571D01*
X141013571Y-67077857D01*
X141013571Y-67192142D01*
X140013571Y-67420714D02*
X140013571Y-67877857D01*
X139513571Y-67592142D02*
X140799285Y-67592142D01*
X140942142Y-67649285D01*
X141013571Y-67763571D01*
X141013571Y-67877857D01*
X140013571Y-68277857D02*
X141513571Y-68277857D01*
X140085000Y-68277857D02*
X140013571Y-68392142D01*
X140013571Y-68620714D01*
X140085000Y-68735000D01*
X140156428Y-68792142D01*
X140299285Y-68849285D01*
X140727857Y-68849285D01*
X140870714Y-68792142D01*
X140942142Y-68735000D01*
X141013571Y-68620714D01*
X141013571Y-68392142D01*
X140942142Y-68277857D01*
X140942142Y-69306428D02*
X141013571Y-69420714D01*
X141013571Y-69649285D01*
X140942142Y-69763571D01*
X140799285Y-69820714D01*
X140727857Y-69820714D01*
X140585000Y-69763571D01*
X140513571Y-69649285D01*
X140513571Y-69477857D01*
X140442142Y-69363571D01*
X140299285Y-69306428D01*
X140227857Y-69306428D01*
X140085000Y-69363571D01*
X140013571Y-69477857D01*
X140013571Y-69649285D01*
X140085000Y-69763571D01*
X140870714Y-70335000D02*
X140942142Y-70392142D01*
X141013571Y-70335000D01*
X140942142Y-70277857D01*
X140870714Y-70335000D01*
X141013571Y-70335000D01*
X140085000Y-70335000D02*
X140156428Y-70392142D01*
X140227857Y-70335000D01*
X140156428Y-70277857D01*
X140085000Y-70335000D01*
X140227857Y-70335000D01*
X139442142Y-71763571D02*
X141370714Y-70735000D01*
X139442142Y-73020714D02*
X141370714Y-71992142D01*
X140013571Y-73935000D02*
X141227857Y-73935000D01*
X141370714Y-73877857D01*
X141442142Y-73820714D01*
X141513571Y-73706428D01*
X141513571Y-73535000D01*
X141442142Y-73420714D01*
X140942142Y-73935000D02*
X141013571Y-73820714D01*
X141013571Y-73592142D01*
X140942142Y-73477857D01*
X140870714Y-73420714D01*
X140727857Y-73363571D01*
X140299285Y-73363571D01*
X140156428Y-73420714D01*
X140085000Y-73477857D01*
X140013571Y-73592142D01*
X140013571Y-73820714D01*
X140085000Y-73935000D01*
X141013571Y-74506428D02*
X140013571Y-74506428D01*
X139513571Y-74506428D02*
X139585000Y-74449285D01*
X139656428Y-74506428D01*
X139585000Y-74563571D01*
X139513571Y-74506428D01*
X139656428Y-74506428D01*
X140013571Y-74906428D02*
X140013571Y-75363571D01*
X139513571Y-75077857D02*
X140799285Y-75077857D01*
X140942142Y-75135000D01*
X141013571Y-75249285D01*
X141013571Y-75363571D01*
X141013571Y-75763571D02*
X139513571Y-75763571D01*
X141013571Y-76277857D02*
X140227857Y-76277857D01*
X140085000Y-76220714D01*
X140013571Y-76106428D01*
X140013571Y-75935000D01*
X140085000Y-75820714D01*
X140156428Y-75763571D01*
X140013571Y-77363571D02*
X141013571Y-77363571D01*
X140013571Y-76849285D02*
X140799285Y-76849285D01*
X140942142Y-76906428D01*
X141013571Y-77020714D01*
X141013571Y-77192142D01*
X140942142Y-77306428D01*
X140870714Y-77363571D01*
X141013571Y-77935000D02*
X139513571Y-77935000D01*
X140085000Y-77935000D02*
X140013571Y-78049285D01*
X140013571Y-78277857D01*
X140085000Y-78392142D01*
X140156428Y-78449285D01*
X140299285Y-78506428D01*
X140727857Y-78506428D01*
X140870714Y-78449285D01*
X140942142Y-78392142D01*
X141013571Y-78277857D01*
X141013571Y-78049285D01*
X140942142Y-77935000D01*
X140870714Y-79020714D02*
X140942142Y-79077857D01*
X141013571Y-79020714D01*
X140942142Y-78963571D01*
X140870714Y-79020714D01*
X141013571Y-79020714D01*
X140942142Y-80106428D02*
X141013571Y-79992142D01*
X141013571Y-79763571D01*
X140942142Y-79649285D01*
X140870714Y-79592142D01*
X140727857Y-79535000D01*
X140299285Y-79535000D01*
X140156428Y-79592142D01*
X140085000Y-79649285D01*
X140013571Y-79763571D01*
X140013571Y-79992142D01*
X140085000Y-80106428D01*
X141013571Y-80792142D02*
X140942142Y-80677857D01*
X140870714Y-80620714D01*
X140727857Y-80563571D01*
X140299285Y-80563571D01*
X140156428Y-80620714D01*
X140085000Y-80677857D01*
X140013571Y-80792142D01*
X140013571Y-80963571D01*
X140085000Y-81077857D01*
X140156428Y-81135000D01*
X140299285Y-81192142D01*
X140727857Y-81192142D01*
X140870714Y-81135000D01*
X140942142Y-81077857D01*
X141013571Y-80963571D01*
X141013571Y-80792142D01*
X141013571Y-81706428D02*
X140013571Y-81706428D01*
X140156428Y-81706428D02*
X140085000Y-81763571D01*
X140013571Y-81877857D01*
X140013571Y-82049285D01*
X140085000Y-82163571D01*
X140227857Y-82220714D01*
X141013571Y-82220714D01*
X140227857Y-82220714D02*
X140085000Y-82277857D01*
X140013571Y-82392142D01*
X140013571Y-82563571D01*
X140085000Y-82677857D01*
X140227857Y-82735000D01*
X141013571Y-82735000D01*
X139442142Y-84163571D02*
X141370714Y-83135000D01*
X141013571Y-84563571D02*
X139513571Y-84563571D01*
X141013571Y-85077857D02*
X140227857Y-85077857D01*
X140085000Y-85020714D01*
X140013571Y-84906428D01*
X140013571Y-84735000D01*
X140085000Y-84620714D01*
X140156428Y-84563571D01*
X141013571Y-86163571D02*
X140227857Y-86163571D01*
X140085000Y-86106428D01*
X140013571Y-85992142D01*
X140013571Y-85763571D01*
X140085000Y-85649285D01*
X140942142Y-86163571D02*
X141013571Y-86049285D01*
X141013571Y-85763571D01*
X140942142Y-85649285D01*
X140799285Y-85592142D01*
X140656428Y-85592142D01*
X140513571Y-85649285D01*
X140442142Y-85763571D01*
X140442142Y-86049285D01*
X140370714Y-86163571D01*
X140013571Y-86735000D02*
X141013571Y-86735000D01*
X140156428Y-86735000D02*
X140085000Y-86792142D01*
X140013571Y-86906428D01*
X140013571Y-87077857D01*
X140085000Y-87192142D01*
X140227857Y-87249285D01*
X141013571Y-87249285D01*
X140942142Y-87763571D02*
X141013571Y-87877857D01*
X141013571Y-88106428D01*
X140942142Y-88220714D01*
X140799285Y-88277857D01*
X140727857Y-88277857D01*
X140585000Y-88220714D01*
X140513571Y-88106428D01*
X140513571Y-87935000D01*
X140442142Y-87820714D01*
X140299285Y-87763571D01*
X140227857Y-87763571D01*
X140085000Y-87820714D01*
X140013571Y-87935000D01*
X140013571Y-88106428D01*
X140085000Y-88220714D01*
X141013571Y-88792142D02*
X139513571Y-88792142D01*
X141013571Y-89306428D02*
X140227857Y-89306428D01*
X140085000Y-89249285D01*
X140013571Y-89135000D01*
X140013571Y-88963571D01*
X140085000Y-88849285D01*
X140156428Y-88792142D01*
X140013571Y-90392142D02*
X141013571Y-90392142D01*
X140013571Y-89877857D02*
X140799285Y-89877857D01*
X140942142Y-89935000D01*
X141013571Y-90049285D01*
X141013571Y-90220714D01*
X140942142Y-90335000D01*
X140870714Y-90392142D01*
X140942142Y-91420714D02*
X141013571Y-91306428D01*
X141013571Y-91077857D01*
X140942142Y-90963571D01*
X140799285Y-90906428D01*
X140227857Y-90906428D01*
X140085000Y-90963571D01*
X140013571Y-91077857D01*
X140013571Y-91306428D01*
X140085000Y-91420714D01*
X140227857Y-91477857D01*
X140370714Y-91477857D01*
X140513571Y-90906428D01*
X141013571Y-91992142D02*
X139513571Y-91992142D01*
X140085000Y-91992142D02*
X140013571Y-92106428D01*
X140013571Y-92335000D01*
X140085000Y-92449285D01*
X140156428Y-92506428D01*
X140299285Y-92563571D01*
X140727857Y-92563571D01*
X140870714Y-92506428D01*
X140942142Y-92449285D01*
X141013571Y-92335000D01*
X141013571Y-92106428D01*
X140942142Y-91992142D01*
X140013571Y-93077857D02*
X141013571Y-93077857D01*
X140156428Y-93077857D02*
X140085000Y-93135000D01*
X140013571Y-93249285D01*
X140013571Y-93420714D01*
X140085000Y-93535000D01*
X140227857Y-93592142D01*
X141013571Y-93592142D01*
X140942142Y-94620714D02*
X141013571Y-94506428D01*
X141013571Y-94277857D01*
X140942142Y-94163571D01*
X140799285Y-94106428D01*
X140227857Y-94106428D01*
X140085000Y-94163571D01*
X140013571Y-94277857D01*
X140013571Y-94506428D01*
X140085000Y-94620714D01*
X140227857Y-94677857D01*
X140370714Y-94677857D01*
X140513571Y-94106428D01*
X141013571Y-95192142D02*
X140013571Y-95192142D01*
X140299285Y-95192142D02*
X140156428Y-95249285D01*
X140085000Y-95306428D01*
X140013571Y-95420714D01*
X140013571Y-95535000D01*
X139442142Y-96792142D02*
X141370714Y-95763571D01*
X139513571Y-97420714D02*
X139513571Y-97649285D01*
X139585000Y-97763571D01*
X139727857Y-97877857D01*
X140013571Y-97935000D01*
X140513571Y-97935000D01*
X140799285Y-97877857D01*
X140942142Y-97763571D01*
X141013571Y-97649285D01*
X141013571Y-97420714D01*
X140942142Y-97306428D01*
X140799285Y-97192142D01*
X140513571Y-97135000D01*
X140013571Y-97135000D01*
X139727857Y-97192142D01*
X139585000Y-97306428D01*
X139513571Y-97420714D01*
X140013571Y-98449285D02*
X141513571Y-98449285D01*
X140085000Y-98449285D02*
X140013571Y-98563571D01*
X140013571Y-98792142D01*
X140085000Y-98906428D01*
X140156428Y-98963571D01*
X140299285Y-99020714D01*
X140727857Y-99020714D01*
X140870714Y-98963571D01*
X140942142Y-98906428D01*
X141013571Y-98792142D01*
X141013571Y-98563571D01*
X140942142Y-98449285D01*
X140942142Y-99992142D02*
X141013571Y-99877857D01*
X141013571Y-99649285D01*
X140942142Y-99535000D01*
X140799285Y-99477857D01*
X140227857Y-99477857D01*
X140085000Y-99535000D01*
X140013571Y-99649285D01*
X140013571Y-99877857D01*
X140085000Y-99992142D01*
X140227857Y-100049285D01*
X140370714Y-100049285D01*
X140513571Y-99477857D01*
X140013571Y-100563571D02*
X141013571Y-100563571D01*
X140156428Y-100563571D02*
X140085000Y-100620714D01*
X140013571Y-100735000D01*
X140013571Y-100906428D01*
X140085000Y-101020714D01*
X140227857Y-101077857D01*
X141013571Y-101077857D01*
X140870714Y-102335000D02*
X140942142Y-102277857D01*
X141013571Y-102106428D01*
X141013571Y-101992142D01*
X140942142Y-101820714D01*
X140799285Y-101706428D01*
X140656428Y-101649285D01*
X140370714Y-101592142D01*
X140156428Y-101592142D01*
X139870714Y-101649285D01*
X139727857Y-101706428D01*
X139585000Y-101820714D01*
X139513571Y-101992142D01*
X139513571Y-102106428D01*
X139585000Y-102277857D01*
X139656428Y-102335000D01*
X141013571Y-103477857D02*
X141013571Y-102792142D01*
X141013571Y-103135000D02*
X139513571Y-103135000D01*
X139727857Y-103020714D01*
X139870714Y-102906428D01*
X139942142Y-102792142D01*
X139513571Y-104506428D02*
X139513571Y-104277857D01*
X139585000Y-104163571D01*
X139656428Y-104106428D01*
X139870714Y-103992142D01*
X140156428Y-103935000D01*
X140727857Y-103935000D01*
X140870714Y-103992142D01*
X140942142Y-104049285D01*
X141013571Y-104163571D01*
X141013571Y-104392142D01*
X140942142Y-104506428D01*
X140870714Y-104563571D01*
X140727857Y-104620714D01*
X140370714Y-104620714D01*
X140227857Y-104563571D01*
X140156428Y-104506428D01*
X140085000Y-104392142D01*
X140085000Y-104163571D01*
X140156428Y-104049285D01*
X140227857Y-103992142D01*
X140370714Y-103935000D01*
X140870714Y-105820714D02*
X140942142Y-105763571D01*
X141013571Y-105592142D01*
X141013571Y-105477857D01*
X140942142Y-105306428D01*
X140799285Y-105192142D01*
X140656428Y-105135000D01*
X140370714Y-105077857D01*
X140156428Y-105077857D01*
X139870714Y-105135000D01*
X139727857Y-105192142D01*
X139585000Y-105306428D01*
X139513571Y-105477857D01*
X139513571Y-105592142D01*
X139585000Y-105763571D01*
X139656428Y-105820714D01*
X141013571Y-106849285D02*
X140227857Y-106849285D01*
X140085000Y-106792142D01*
X140013571Y-106677857D01*
X140013571Y-106449285D01*
X140085000Y-106335000D01*
X140942142Y-106849285D02*
X141013571Y-106735000D01*
X141013571Y-106449285D01*
X140942142Y-106335000D01*
X140799285Y-106277857D01*
X140656428Y-106277857D01*
X140513571Y-106335000D01*
X140442142Y-106449285D01*
X140442142Y-106735000D01*
X140370714Y-106849285D01*
X141013571Y-107420714D02*
X140013571Y-107420714D01*
X140299285Y-107420714D02*
X140156428Y-107477857D01*
X140085000Y-107535000D01*
X140013571Y-107649285D01*
X140013571Y-107763571D01*
X140013571Y-107992142D02*
X140013571Y-108449285D01*
X139513571Y-108163571D02*
X140799285Y-108163571D01*
X140942142Y-108220714D01*
X141013571Y-108335000D01*
X141013571Y-108449285D01*
M02*
