M48
; DRILL file {KiCad (5.1.5-0-10_14)} date Sunday, 12 July 2020 at 14:24:51
; FORMAT={-:-/ absolute / inch / decimal}
; #@! TF.CreationDate,2020-07-12T14:24:51+02:00
; #@! TF.GenerationSoftware,Kicad,Pcbnew,(5.1.5-0-10_14)
; #@! TF.FileFunction,Plated,1,2,PTH
FMAT,2
INCH
T1C0.0197
T2C0.0315
T3C0.0315
%
G90
G05
T1
X5.035Y-2.605
X5.206Y-4.647
X5.2298Y-3.8
X5.2346Y-3.1046
X5.235Y-3.2
X5.235Y-3.3
X5.235Y-3.4
X5.235Y-3.5
X5.25Y-4.625
X5.295Y-4.6
X5.34Y-4.575
X5.385Y-4.55
X5.425Y-3.15
X5.425Y-3.25
X5.425Y-3.35
X5.43Y-4.525
X5.475Y-4.5
X5.52Y-4.475
X5.565Y-4.455
X5.64Y-2.805
X5.7Y-2.65
X5.8Y-2.805
X5.85Y-3.35
X5.9Y-2.695
X6.0708Y-4.1345
X6.1244Y-3.95
X6.1566Y-4.0484
X6.2961Y-4.1
X6.3159Y-4.0
X6.3358Y-3.9
X6.3556Y-3.8
X6.3755Y-3.7
X6.3956Y-3.6
X6.4155Y-3.5
X6.45Y-3.4
X6.585Y-2.865
T2
X4.84Y-2.6
X4.84Y-2.8
X4.84Y-3.0
X4.84Y-3.2
X4.84Y-3.4
X4.84Y-3.6
X4.84Y-3.8
X4.84Y-4.0
X4.84Y-4.2
X4.84Y-4.4
X4.84Y-4.6
X5.305Y-2.645
X5.3096Y-2.805
X5.31Y-2.955
X6.54Y-2.65
X6.54Y-2.8
X6.54Y-2.95
X6.77Y-2.6
X6.77Y-2.8
X6.77Y-3.0
X6.77Y-3.2
X6.77Y-3.4
X6.77Y-3.6
X6.77Y-3.8
X6.77Y-4.0
X6.77Y-4.2
X6.77Y-4.4
X6.77Y-4.6
X5.7Y-2.565
X5.7Y-2.865
X5.8Y-2.565
X5.8Y-2.865
X5.9Y-2.565
X5.9Y-2.865
X6.0Y-2.565
X6.0Y-2.865
T3
X5.1Y-3.05
X5.1Y-3.15
X5.1Y-3.25
X5.1Y-3.35
X5.1Y-3.45
X5.1Y-3.55
X5.1Y-3.65
X5.1Y-3.75
X5.1Y-3.85
X5.1Y-3.95
X5.1Y-4.05
X5.1Y-4.15
X5.1Y-4.25
X5.1Y-4.35
X5.7Y-3.05
X5.7Y-3.15
X5.7Y-3.25
X5.7Y-3.35
X5.7Y-3.45
X5.7Y-3.55
X5.7Y-3.65
X5.7Y-3.75
X5.7Y-3.85
X5.7Y-3.95
X5.7Y-4.05
X5.7Y-4.15
X5.7Y-4.25
X5.7Y-4.35
X6.0Y-3.05
X6.0Y-3.15
X6.0Y-3.25
X6.0Y-3.35
X6.0Y-3.45
X6.0Y-3.55
X6.0Y-3.65
X6.0Y-3.75
X6.0Y-3.85
X6.0Y-3.95
X6.0Y-4.05
X6.0Y-4.15
X6.0Y-4.25
X6.0Y-4.35
X6.6Y-3.05
X6.6Y-3.15
X6.6Y-3.25
X6.6Y-3.35
X6.6Y-3.45
X6.6Y-3.55
X6.6Y-3.65
X6.6Y-3.75
X6.6Y-3.85
X6.6Y-3.95
X6.6Y-4.05
X6.6Y-4.15
X6.6Y-4.25
X6.6Y-4.35
T0
M30
